<svg width="665" height="471" viewBox="0 0 665 471" fill="none" xmlns="http://www.w3.org/2000/svg">
<g clip-path="url(#clip0)">
<path opacity="0.1" d="M221.085 470.735C253.47 470.735 279.723 466.519 279.723 461.318C279.723 456.117 253.47 451.901 221.085 451.901C188.7 451.901 162.447 456.117 162.447 461.318C162.447 466.519 188.7 470.735 221.085 470.735Z" fill="#B02828"/>
<path opacity="0.1" d="M539.834 471C580.246 471 613.005 466.784 613.005 461.583C613.005 456.382 580.246 452.166 539.834 452.166C499.423 452.166 466.663 456.382 466.663 461.583C466.663 466.784 499.423 471 539.834 471Z" fill="#B02828"/>
<path opacity="0.1" d="M8.32874 203.506H69.4042V286.744H12.8C12.6496 287.598 12.5052 288.458 12.3487 289.319H69.4042V356.448C69.3019 356.418 69.2116 356.382 69.1154 356.346C67.5026 355.708 65.9018 355.034 64.3011 354.312L63.278 353.849C61.6733 353.091 60.0685 352.288 58.4637 351.442C57.9041 351.147 57.3444 350.84 56.7907 350.527C47.8818 345.537 39.7884 339.214 32.7914 331.777C32.5868 331.579 32.3943 331.368 32.1896 331.175C31.2148 330.116 30.2579 329.045 29.3312 327.95L28.3081 326.747C27.2129 325.405 26.1537 324.027 25.1247 322.631C24.9742 322.426 24.8298 322.222 24.6733 322.029C20.4882 316.227 17.0132 309.944 14.3226 303.315C14.2383 303.117 14.1661 302.9 14.0879 302.714C13.2614 300.587 12.5292 298.441 11.8913 296.275C11.6145 295.366 11.3497 294.47 11.121 293.525C11.0368 293.248 10.9646 292.977 10.8984 292.707C7.48022 279.366 7.07702 265.508 7.07702 251.747C7.07702 250.14 7.07702 248.528 7.07702 246.933C7.07702 241.367 7.14322 235.765 7.23951 230.169C7.23951 228.718 7.29968 227.274 7.32977 225.818C7.41402 222.123 7.53438 218.429 7.69085 214.734C7.72696 213.705 7.7751 212.682 7.82926 211.659C7.82926 211.07 7.85935 210.48 7.91953 209.89C8.06396 207.748 8.18432 205.624 8.32874 203.506Z" fill="#B02828"/>
<path opacity="0.1" d="M69.4042 110.827H35.9027C41.3485 102.304 47.2988 94.1139 53.7216 86.3005C58.6984 80.1869 63.952 74.2297 69.4042 68.4892V110.827Z" fill="#B02828"/>
<path opacity="0.1" d="M69.4042 113.402V200.93H8.52131C8.52131 200.678 8.56343 200.419 8.58149 200.166C8.63565 199.474 8.68981 198.782 8.74999 198.096C8.81618 197.29 8.8884 196.478 8.96663 195.689C9.04486 194.901 9.12911 193.938 9.21938 193.066C9.30965 192.193 9.3939 191.309 9.4962 190.436C9.59851 189.564 9.68878 188.691 9.7971 187.825C9.90542 186.958 10.0017 186.08 10.116 185.213C10.2063 184.491 10.3026 183.775 10.3989 183.053C10.5373 182.036 10.6817 181.013 10.8382 180.002C10.8382 179.852 10.8803 179.695 10.9044 179.551C12.0028 172.151 13.4994 164.815 15.3877 157.576C17.3643 149.982 19.8884 142.541 22.9402 135.312C26.1836 127.749 29.9812 120.436 34.3019 113.433L69.4042 113.402Z" fill="#B02828"/>
<path opacity="0.1" d="M83.9855 203.5V286.743H214.435V203.5H83.9855ZM83.9855 289.313V360.799C84.7317 360.955 85.4719 361.106 86.2061 361.232C87.2051 361.425 88.198 361.599 89.2151 361.749C89.4076 361.78 89.6062 361.81 89.8169 361.828C90.214 361.894 90.6233 361.948 91.0204 362.002C92.0254 362.141 93.0244 362.255 94.0294 362.345C94.5048 362.393 94.9862 362.435 95.4676 362.472L96.6291 362.562C97.261 362.61 97.8868 362.646 98.5067 362.664C98.8918 362.664 99.277 362.7 99.6741 362.712C99.975 362.712 100.276 362.712 100.589 362.712C100.902 362.712 101.347 362.712 101.726 362.712C102.244 362.712 102.761 362.712 103.273 362.712H103.965C104.482 362.712 105 362.712 105.511 362.664H105.548C105.903 362.664 106.264 362.664 106.625 362.616C106.725 362.622 106.825 362.622 106.926 362.616C107.227 362.616 107.527 362.616 107.816 362.574H108.027L110.043 362.417C110.705 362.357 111.373 362.279 112.047 362.207L113.419 362.044C119.001 361.262 124.521 360.088 129.938 358.53C142.106 355.136 154.01 350.389 166.172 346.911C181.896 342.428 199.27 340.226 214.465 345.707V289.313H83.9855ZM214.435 110.827V0.00601068C200.153 -0.148709 185.91 1.52158 172.051 4.97632C139.019 13.2742 109.381 31.272 83.9855 54.2582V110.821H90.533V113.39H83.9855V200.93H214.435V113.396H117.415V110.827H214.435ZM381.991 73.3933C373.819 73.1045 365.695 70.517 358.347 66.5215C344.295 58.8795 333.072 47.0795 320.53 37.1209C294.473 16.3791 262.157 3.86312 229.004 0.758176V110.827H415.228L415.691 110.34L381.991 73.3933ZM398.955 70.3846L416.943 90.1215V65.2097C410.919 65.9559 405.641 67.731 398.98 70.3606L398.955 70.3846ZM416.943 378.55V289.313H378.615C378.513 288.934 378.41 288.549 378.29 288.164C378.404 288.549 378.501 288.934 378.609 289.313H229.029V353.849C230.449 354.902 231.851 356.009 233.241 357.134C234.739 358.338 236.22 359.607 237.706 360.853L239.205 362.092C239.921 362.694 240.643 363.296 241.371 363.862C242.815 365.033 244.274 366.188 245.746 367.328C246.474 367.929 247.221 368.471 247.961 369.036C259.712 378.02 272.108 386.127 285.049 393.292C287.95 394.897 290.876 396.463 293.829 397.992C295.797 398.997 297.777 399.996 299.763 400.964C302.748 402.421 305.757 403.825 308.79 405.176C336.752 417.728 366.321 426.34 396.651 430.768C403.387 431.763 410.149 432.545 416.937 433.115V378.544H417.539L416.943 378.55ZM229.029 113.396V200.93H416.967V113.396H229.029ZM229.029 203.5V286.743H416.967V203.5H229.029ZM431.554 65.1014V92.8894L454.513 67.7009C446.906 66.4734 439.253 65.5968 431.554 65.0713V65.1014ZM431.554 203.53V286.743H614.348V203.5L431.554 203.53ZM613.68 385.157L614.323 289.313H431.554V434.072C443.328 434.566 455.12 434.426 466.879 433.65H467.084C472.701 433.297 478.291 432.784 483.856 432.11H483.982C513.669 428.655 542.697 420.911 570.158 409.118L613.68 385.157ZM649.594 217.207C648.908 215.589 648.192 213.982 647.464 212.393C646.104 209.385 644.666 206.46 643.185 203.536H628.923V286.743H664.982C664.964 263.18 659 239.11 649.612 217.177L649.594 217.207ZM628.923 289.343V371.78C639.081 362.044 647.663 350.906 653.843 338.174C661.275 322.841 664.675 306.24 664.952 289.331L628.923 289.343ZM628.923 179.274V200.936H641.849C637.939 193.479 633.63 186.238 628.941 179.244L628.923 179.274ZM504.954 81.4324C504.004 81.0714 503.053 80.7043 502.096 80.3493C492.005 76.623 481.692 73.5241 471.218 71.0706L436.086 109.624L435.412 110.34L435.863 110.833H560.903C543.488 98.8469 524.714 88.9677 504.972 81.4024L504.954 81.4324ZM564.568 113.427H434.118L431.554 115.773V200.93H454.025H454.061H614.372V159.682C599.87 142.145 583.132 126.584 564.586 113.396L564.568 113.427Z" fill="#B02828"/>
<path opacity="0.1" d="M69.4042 157.552V200.93H8.52131C8.52131 200.678 8.56343 200.419 8.58149 200.166C8.63565 199.474 8.68981 198.782 8.74999 198.096C8.81618 197.29 8.8884 196.478 8.96663 195.689C9.04486 194.901 9.12911 193.938 9.21938 193.066C9.30965 192.193 9.3939 191.309 9.4962 190.436C9.59851 189.564 9.68878 188.691 9.7971 187.825C9.90542 186.958 10.0017 186.08 10.116 185.213C10.2063 184.491 10.3026 183.775 10.3989 183.053C10.5373 182.036 10.6817 181.013 10.8382 180.002C10.8382 179.852 10.8803 179.695 10.9044 179.551C12.0028 172.151 13.4994 164.815 15.3877 157.576L69.4042 157.552Z" fill="#B02828"/>
<path opacity="0.1" d="M8.32874 203.506H69.4042V286.744H12.8C12.6496 287.598 12.5052 288.458 12.3487 289.319H69.4042V356.448C69.3019 356.418 69.2116 356.382 69.1154 356.346C67.5026 355.708 65.9018 355.034 64.3011 354.312L63.278 353.849C61.6733 353.091 60.0685 352.288 58.4637 351.442C57.9041 351.147 57.3444 350.84 56.7907 350.527C47.8818 345.537 39.7884 339.214 32.7914 331.777C32.5868 331.579 32.3943 331.368 32.1896 331.175C31.2148 330.116 30.2579 329.045 29.3312 327.95L28.3081 326.747C27.2129 325.405 26.1537 324.027 25.1247 322.631C24.9742 322.426 24.8298 322.222 24.6733 322.029C20.4882 316.227 17.0132 309.944 14.3226 303.315C14.2383 303.117 14.1661 302.9 14.0879 302.714C13.2614 300.587 12.5292 298.441 11.8913 296.275C11.6145 295.366 11.3497 294.47 11.121 293.525C11.0368 293.248 10.9646 292.977 10.8984 292.707C7.48022 279.366 7.07702 265.508 7.07702 251.747C7.07702 250.14 7.07702 248.528 7.07702 246.933C7.07702 241.367 7.14322 235.765 7.23951 230.169C7.23951 228.718 7.29968 227.274 7.32977 225.818C7.41402 222.123 7.53438 218.429 7.69085 214.734C7.72696 213.705 7.7751 212.682 7.82926 211.659C7.82926 211.07 7.85935 210.48 7.91953 209.89C8.06396 207.748 8.18432 205.624 8.32874 203.506Z" fill="#B02828"/>
<path opacity="0.1" d="M129.908 125.931V200.931H83.9855V125.931H90.533V100.537H117.409V125.931H129.908Z" fill="#B02828"/>
<path opacity="0.1" d="M129.908 203.5H83.9916V286.738H129.908V203.5Z" fill="#B02828"/>
<path opacity="0.1" d="M83.9855 289.319H129.908V358.518C124.491 360.075 118.971 361.247 113.389 362.026L112.017 362.195C111.343 362.273 110.675 362.339 110.013 362.405C109.351 362.472 108.665 362.52 107.997 362.562H107.786C107.497 362.562 107.184 362.598 106.902 362.604H106.595C106.234 362.604 105.873 362.64 105.511 362.652C105 362.682 104.488 362.688 103.965 362.694C103.742 362.694 103.532 362.694 103.309 362.694C102.791 362.694 102.28 362.694 101.762 362.694H100.625C100.318 362.694 100.023 362.694 99.7042 362.694L98.5428 362.652C97.941 362.652 97.2911 362.586 96.6652 362.544L95.5098 362.459L94.0715 362.327C93.0605 362.237 92.0555 362.123 91.0626 361.984L89.859 361.816L89.2572 361.731C88.2522 361.575 87.2593 361.406 86.2482 361.214C85.508 361.088 84.7739 360.931 84.0276 360.781L83.9855 289.319Z" fill="#B02828"/>
<path opacity="0.1" d="M416.967 117.073H379.103V200.924H416.967V117.073Z" fill="#B02828"/>
<path opacity="0.1" d="M416.973 203.5V286.744H229.029V250.838H329.136V272.019H379.103V203.5H416.973Z" fill="#B02828"/>
<path opacity="0.1" d="M417.569 378.568H416.967V433.175C410.187 432.601 403.427 431.821 396.687 430.834C366.342 426.392 336.761 417.761 308.79 405.189C300.714 401.554 292.802 397.587 285.055 393.286C272.114 386.118 259.716 378.011 247.961 369.03C245.008 366.768 242.093 364.453 239.217 362.086C237.225 360.444 235.245 358.759 233.241 357.122C231.851 355.997 230.449 354.89 229.029 353.831V289.319H378.603C378.501 288.934 378.398 288.549 378.29 288.17C378.404 288.549 378.513 288.934 378.615 289.319H416.967V378.532C417.172 378.538 417.37 378.556 417.569 378.568Z" fill="#B02828"/>
<path opacity="0.1" d="M515.72 110.827H491.047V103.161H502.108V80.3252C503.067 80.6743 504.022 81.0333 504.972 81.4024V103.161H515.72V110.827Z" fill="#B02828"/>
<path opacity="0.1" d="M575.165 200.93H454.037C454.037 200.93 454.037 200.931 454.079 200.961L454.025 200.93H431.554V117.079H437.921V179.058H467.018V142.352H491.053V113.402H515.726V142.376H539.762V179.082H575.165V200.93Z" fill="#B02828"/>
<path opacity="0.1" d="M431.554 203.5V286.744H575.165V203.5H431.554ZM614.149 384.73L614.347 318.84H575.165V289.355H431.554V434.072C443.328 434.566 455.12 434.426 466.879 433.65H467.084C472.701 433.297 478.291 432.784 483.856 432.11H483.982C513.669 428.655 542.697 420.911 570.158 409.118" fill="#B02828"/>
<path opacity="0.1" d="M631.474 289.319H664.976C664.681 306.222 661.287 322.823 653.861 338.155C647.681 350.894 639.093 362.032 628.947 371.762V318.81H631.474V289.319Z" fill="#B02828"/>
<path opacity="0.1" d="M664.994 286.744H631.474V217.177H649.612C659 239.11 664.964 263.18 664.994 286.744Z" fill="#B02828"/>
<path opacity="0.1" d="M416.973 140.384H396.687V166.674H416.973V140.384Z" fill="#B02828"/>
<path opacity="0.1" d="M416.973 194.877H396.687V200.93H416.973V194.877Z" fill="#B02828"/>
<path opacity="0.1" d="M416.973 203.5H396.687V221.161H416.973V203.5Z" fill="#B02828"/>
<path opacity="0.1" d="M416.973 249.37H396.687V275.66H416.973V249.37Z" fill="#B02828"/>
<path opacity="0.1" d="M416.973 303.863H396.687V330.152H416.973V303.863Z" fill="#B02828"/>
<path opacity="0.1" d="M416.967 378.532C417.172 378.532 417.37 378.532 417.569 378.568H416.967V384.675H396.687V358.356H416.967V378.532Z" fill="#B02828"/>
<path opacity="0.1" d="M416.967 412.837V433.145C410.187 432.571 403.427 431.791 396.687 430.804V412.837H416.967Z" fill="#B02828"/>
<path opacity="0.1" d="M315.969 284.812H229.029V286.743H315.969V284.812Z" fill="#B02828"/>
<path opacity="0.1" d="M315.969 289.313H229.029V296.714H315.969V289.313Z" fill="#B02828"/>
<path opacity="0.1" d="M315.969 320.976H229.029V332.878H315.969V320.976Z" fill="#B02828"/>
<path opacity="0.1" d="M315.963 357.14V369.042H247.961C245.008 366.788 242.091 364.473 239.211 362.098C237.219 360.456 235.245 358.771 233.235 357.14H315.963Z" fill="#B02828"/>
<path opacity="0.1" d="M315.963 393.298V405.189H308.784C300.716 401.55 292.806 397.581 285.055 393.28L315.963 393.298Z" fill="#B02828"/>
<path opacity="0.1" d="M484 211.569H466.885V228.682H484V211.569Z" fill="#B02828"/>
<path opacity="0.1" d="M113.431 131.834H96.3162V148.947H113.431V131.834Z" fill="#B02828"/>
<path opacity="0.1" d="M113.431 171.584H96.3162V188.697H113.431V171.584Z" fill="#B02828"/>
<path opacity="0.1" d="M113.431 211.334H96.3162V228.448H113.431V211.334Z" fill="#B02828"/>
<path opacity="0.1" d="M113.431 251.079H96.3162V268.192H113.431V251.079Z" fill="#B02828"/>
<path opacity="0.1" d="M113.431 290.829H96.3162V307.943H113.431V290.829Z" fill="#B02828"/>
<path opacity="0.1" d="M113.431 330.58H96.3162V347.693H113.431V330.58Z" fill="#B02828"/>
<path opacity="0.1" d="M549.336 211.569H532.221V228.682H549.336V211.569Z" fill="#B02828"/>
<path opacity="0.1" d="M484 253.781H466.885V270.894H484V253.781Z" fill="#B02828"/>
<path opacity="0.1" d="M549.336 253.781H532.221V270.894H549.336V253.781Z" fill="#B02828"/>
<path opacity="0.1" d="M484 295.986H466.885V313.099H484V295.986Z" fill="#B02828"/>
<path opacity="0.1" d="M549.336 295.986H532.221V313.099H549.336V295.986Z" fill="#B02828"/>
<path opacity="0.1" d="M484 338.198H466.885V355.311H484V338.198Z" fill="#B02828"/>
<path opacity="0.1" d="M549.336 338.198H532.221V355.311H549.336V338.198Z" fill="#B02828"/>
<path opacity="0.1" d="M484 380.409H466.885V397.522H484V380.409Z" fill="#B02828"/>
<path opacity="0.1" d="M549.336 380.409H532.221V397.522H549.336V380.409Z" fill="#B02828"/>
<path opacity="0.1" d="M466.885 433.65V422.615H483.994V432.08L466.885 433.65Z" fill="#B02828"/>
<path opacity="0.1" d="M10.8322 179.539V189.329H69.4042V179.539H10.8322ZM16.6695 188.715H11.8913V180.141H16.7056L16.6695 188.715ZM22.5009 188.715H17.6866V180.141H22.5009V188.715ZM28.3201 188.715H23.5058V180.141H28.3201V188.715ZM34.1515 188.715H29.3432V180.141H34.1575L34.1515 188.715ZM39.9768 188.715H35.1625V180.141H39.9768V188.715ZM45.8081 188.715H40.9938V180.141H45.8081V188.715ZM51.6394 188.715H46.8251V180.141H51.6394V188.715ZM57.4647 188.715H52.6504V180.141H57.4647V188.715ZM63.2901 188.715H58.4758V180.141H63.2901V188.715ZM69.1154 188.715H64.3011V180.141H69.1154V188.715Z" fill="#B02828"/>
<path opacity="0.1" d="M10.8322 208.025V217.815H69.4042V208.025H10.8322ZM16.6695 217.195H11.8913V208.645H16.7056L16.6695 217.195ZM22.5009 217.195H17.6866V208.645H22.5009V217.195ZM28.3201 217.195H23.5058V208.645H28.3201V217.195ZM34.1515 217.195H29.3432V208.645H34.1575L34.1515 217.195ZM39.9768 217.195H35.1625V208.645H39.9768V217.195ZM45.8081 217.195H40.9938V208.645H45.8081V217.195ZM51.6394 217.195H46.8251V208.645H51.6394V217.195ZM57.4647 217.195H52.6504V208.645H57.4647V217.195ZM63.2901 217.195H58.4758V208.645H63.2901V217.195ZM69.1154 217.195H64.3011V208.645H69.1154V217.195Z" fill="#B02828"/>
<path opacity="0.1" d="M10.8322 236.523V246.331H69.4042V236.523H10.8322ZM16.6695 245.693H11.8913V237.137H16.7056L16.6695 245.693ZM22.5009 245.693H17.6866V237.137H22.5009V245.693ZM28.3201 245.693H23.5058V237.137H28.3201V245.693ZM34.1515 245.693H29.3432V237.137H34.1575L34.1515 245.693ZM39.9768 245.693H35.1625V237.137H39.9768V245.693ZM45.8081 245.693H40.9938V237.137H45.8081V245.693ZM51.6394 245.693H46.8251V237.137H51.6394V245.693ZM57.4647 245.693H52.6504V237.137H57.4647V245.693ZM63.2901 245.693H58.4758V237.137H63.2901V245.693ZM69.1154 245.693H64.3011V237.137H69.1154V245.693Z" fill="#B02828"/>
<path opacity="0.1" d="M10.8322 265.021V274.799H69.4042V265.021H10.8322ZM16.6695 274.191H11.8913V265.629H16.7056L16.6695 274.191ZM22.5009 274.191H17.6866V265.629H22.5009V274.191ZM28.3201 274.191H23.5058V265.629H28.3201V274.191ZM34.1515 274.191H29.3432V265.629H34.1575L34.1515 274.191ZM39.9768 274.191H35.1625V265.629H39.9768V274.191ZM45.8081 274.191H40.9938V265.629H45.8081V274.191ZM51.6394 274.191H46.8251V265.629H51.6394V274.191ZM57.4647 274.191H52.6504V265.629H57.4647V274.191ZM63.2901 274.191H58.4758V265.629H63.2901V274.191ZM69.1154 274.191H64.3011V265.629H69.1154V274.191Z" fill="#B02828"/>
<path opacity="0.1" d="M11.0849 293.513C11.3196 294.434 11.5844 295.354 11.8612 296.263V294.127H16.6755V302.683H14.0999C14.1781 302.882 14.2563 303.099 14.3346 303.285H69.4042V293.513H11.0849ZM22.5189 302.683H17.7046V294.127H22.5189V302.683ZM28.3382 302.683H23.5239V294.127H28.3382V302.683ZM34.1695 302.683H29.3432V294.127H34.1575L34.1695 302.683ZM39.9948 302.683H35.1805V294.127H39.9948V302.683ZM45.8262 302.683H41.0118V294.127H45.8262V302.683ZM51.6575 302.683H46.8432V294.127H51.6575V302.683ZM57.4828 302.683H52.6685V294.127H57.4828V302.683ZM63.3081 302.683H58.4938V294.127H63.3081V302.683ZM69.1334 302.683H64.3191V294.127H69.1334V302.683Z" fill="#B02828"/>
<path opacity="0.1" d="M24.6853 322.011C24.8358 322.204 24.9802 322.42 25.1367 322.613H28.3201V326.723C28.6632 327.132 29.0002 327.541 29.3492 327.926V322.589H34.1635V331.175H32.2137C32.4063 331.374 32.5928 331.585 32.8155 331.777H69.4223V322.011H24.6853ZM39.9768 331.175H35.1625V322.625H39.9768V331.175ZM45.8081 331.175H40.9938V322.625H45.8081V331.175ZM51.6394 331.175H46.8251V322.625H51.6394V331.175ZM57.4647 331.175H52.6504V322.625H57.4647V331.175ZM63.2901 331.175H58.4757V322.625H63.2901V331.175ZM69.1154 331.175H64.3011V322.625H69.1154V331.175Z" fill="#B02828"/>
<path opacity="0.1" d="M56.8148 350.503C57.3624 350.816 57.9221 351.105 58.4878 351.418V351.117H63.3021V353.825L64.3251 354.3V351.117H69.1394V356.322C69.2317 356.368 69.3285 356.404 69.4283 356.43V350.503H56.8148Z" fill="#B02828"/>
<path opacity="0.1" d="M454.037 200.93H454.073H454.037ZM416.967 378.526H417.569H416.967ZM378.29 288.164C378.404 288.549 378.501 288.934 378.609 289.313C378.513 288.934 378.41 288.549 378.29 288.164ZM454.037 200.912H454.073H454.037ZM90.5571 110.809V113.378H117.439V110.809H90.5571ZM416.967 378.526H417.569H416.967ZM378.29 288.164C378.404 288.549 378.501 288.934 378.609 289.313C378.513 288.934 378.41 288.549 378.29 288.164ZM454.037 200.912H454.073H454.037ZM416.967 378.508H417.569H416.967ZM378.29 288.164C378.404 288.549 378.501 288.934 378.609 289.313C378.513 288.934 378.41 288.549 378.29 288.164Z" fill="#B02828"/>
<path d="M277.785 228.46C277.785 228.46 275.414 228.129 275.414 224.675C275.414 221.221 273.717 214.77 273.717 214.77C273.717 214.74 272.249 203.536 270.221 201.755C268.193 199.974 265.587 189.516 265.587 189.516C265.587 189.516 265.142 183.841 264.233 182.62C263.324 181.398 262.097 178.408 260.285 174.141C258.474 169.875 250.922 166.921 250.922 166.921C250.922 166.921 237.267 159.002 233.398 156.42C233.046 156.208 232.717 155.96 232.417 155.68C231.743 154.796 228.806 154.778 228.806 154.778C228.499 152.84 228.204 150.614 228.108 148.598C228.108 148.381 228.108 148.165 228.078 147.948C232.392 145.398 235.642 141.377 237.231 136.623C237.303 136.395 237.363 136.154 237.43 135.925C237.688 135.84 237.926 135.702 238.128 135.52C238.33 135.337 238.492 135.115 238.603 134.866C238.952 134.09 238.958 133.181 239.391 132.459C239.897 131.605 240.86 131.148 241.618 130.504C243.532 128.879 244.025 126.141 243.935 123.65C243.875 121.634 243.55 119.6 243.676 117.597L243.712 117.091C243.748 116.79 243.79 116.489 243.845 116.201C244.139 114.708 244.783 113.3 245.144 111.82C245.506 110.34 245.542 108.673 244.699 107.397C243.465 105.526 240.896 105.153 238.639 104.96C236.082 104.744 233.795 105.026 232.158 102.902C231.392 101.792 230.53 100.751 229.582 99.7913C229.245 99.4784 225.971 97.4806 225.971 97.3482C222.776 95.8685 219.155 95.5908 215.771 96.566C214.074 97.0594 212.473 97.8657 210.752 98.2689C207.039 99.1474 202.767 98.1967 199.613 100.321C197.856 101.524 196.803 103.438 195.816 105.303C195.013 106.84 194.199 108.374 193.373 109.906C192.043 112.428 190.689 114.991 190.129 117.783C190.011 118.391 189.939 119.006 189.912 119.624V119.654C189.912 119.877 189.912 120.1 189.912 120.322V120.605C189.912 120.816 189.912 121.02 189.948 121.207C189.985 121.393 189.979 121.454 189.997 121.58C190.015 121.706 190.045 121.989 190.081 122.182C190.117 122.374 190.189 122.711 190.261 122.976C190.291 123.09 190.334 123.199 190.37 123.307C190.43 123.512 190.502 123.71 190.58 123.909C190.622 124.011 190.665 124.119 190.713 124.222C190.803 124.432 190.911 124.637 191.02 124.823C191.068 124.908 191.104 124.986 191.152 125.064C191.32 125.344 191.505 125.613 191.706 125.87C192.993 127.477 194.889 128.5 196.291 130.004C196.291 130.064 196.291 130.125 196.291 130.179C196.291 130.347 196.291 130.51 196.291 130.678C196.366 134.033 197.259 137.319 198.893 140.25C200.527 143.181 202.852 145.669 205.667 147.497C205.667 147.725 205.697 147.96 205.709 148.189C205.827 149.975 205.804 151.767 205.643 153.55C205.398 153.261 205.091 153.032 204.745 152.877C204.4 152.723 204.024 152.649 203.645 152.659C203.387 152.647 203.127 152.669 202.875 152.726L202.821 152.684V152.738C201.497 153.063 199.866 154.441 198.307 158.358C198.307 158.358 193.565 163.701 189.954 163.479C186.344 163.256 177.203 169.039 177.203 169.039C177.203 169.039 168.284 174.827 166.37 180.724C165.301 184.068 164.018 187.34 162.531 190.52L151.506 213.236L149.472 231.258C149.472 231.258 150.597 239.273 150.375 240.494C150.152 241.716 155.003 252.734 155.003 252.734C155.003 252.734 171.028 280.889 177.576 282.333L178.045 282.002C178.325 282.148 178.622 282.259 178.93 282.333L180.278 281.382C180.359 282.442 180.324 283.507 180.175 284.559C179.273 287.339 180.512 305.481 182.089 309.038C183.666 312.594 183.106 359.222 183.106 359.222L182.883 363.338C182.883 363.338 182.883 363.47 182.938 363.699L182.883 364.674L183.046 364.758C183.215 366.064 183.16 367.388 182.883 368.675C182.318 370.481 182.089 375.583 182.089 375.583C182.089 375.583 177.582 404.394 179.718 410.183C181.854 415.972 183.672 422.314 183.672 422.314C183.672 422.314 185.928 429.535 183.78 430.768C181.632 432.002 175.524 434.072 176.781 437.08C177.925 439.86 182.264 447.31 182.907 448.399L182.853 448.971L181.969 458.556C182.112 459.822 182.455 461.057 182.986 462.215C183.955 464.303 185.838 466.469 189.419 466.234C190.021 466.192 190.719 466.12 191.393 466.03C197.946 465.151 206.016 462.227 206.016 462.227C205.597 461.961 205.213 461.643 204.873 461.282C204.551 460.97 204.295 460.596 204.123 460.182C203.95 459.768 203.863 459.323 203.868 458.875C203.964 457.13 200.696 448.814 199.884 446.768C199.758 446.473 199.691 446.305 199.691 446.305C199.691 446.305 207.142 438.518 205.902 431.617C205.902 431.617 197.657 426.803 200.371 424.161C203.085 421.52 207.936 413.932 207.936 413.932C207.936 413.932 208.159 385.56 207.936 381.324C207.704 378.384 207.843 375.426 208.351 372.52C208.441 372.081 208.55 371.654 208.664 371.233C212.418 371.793 216.207 372.081 220.002 372.093C221.386 372.093 222.794 372.093 224.214 372.009C224.214 372.41 224.232 372.843 224.268 373.309C224.581 380.337 225.165 392.66 225.64 397.24C226.314 403.805 230.04 421.495 230.04 421.495C230.04 421.495 222.932 426.057 231.279 437.297C231.279 437.297 231.279 441.371 230.726 441.96C230.135 443.888 229.658 445.849 229.299 447.833C228.95 449.951 228.806 452.094 229.372 453.207C230.726 455.866 238.85 455.65 238.85 455.65L239.048 455.614C240.582 455.455 242.132 455.603 243.608 456.048C245.084 456.493 246.458 457.227 247.648 458.207C250.735 460.686 262.452 459.597 268.795 458.809C271.28 458.496 272.941 458.207 272.941 458.207C273.022 457.926 273.05 457.632 273.025 457.341C272.959 455.782 271.737 452.364 263.457 449.314C263.457 449.314 255.67 444.078 255.778 439.517H255.616H254.713C255.369 439.481 255.79 439.517 255.79 439.517C255.79 439.517 252.739 428.385 253.985 427.483C255.23 426.58 251.499 414.245 251.499 414.245C251.499 414.245 249.363 393.545 249.249 392.095C249.253 390.85 249.442 389.614 249.808 388.424L249.249 377.076C249.249 377.076 249.14 373.303 249.249 372.075C249.23 371.01 249.144 369.946 248.99 368.892C248.936 368.471 248.882 368.032 248.821 367.598C251.74 366.858 253.636 366.172 253.636 366.172L253.299 326.668C255.778 321.855 256.235 311.294 256.223 303.803C256.223 298.989 256.007 295.427 256.007 295.427L259.395 289.897C259.395 289.897 260.177 283.278 258.937 281.827C258.39 281.171 258.637 280.492 259.088 279.932C259.322 279.746 259.57 279.577 259.828 279.426C259.828 279.426 259.792 279.372 259.75 279.294C259.986 279.096 260.238 278.917 260.502 278.759C260.502 278.759 259.298 276.893 260.376 276.105C261.387 276.791 262.289 277.308 262.975 277.73C262.927 278.169 262.879 278.422 262.879 278.422L263.168 277.82C263.83 278.193 264.233 278.422 264.233 278.422C264.233 278.422 269.541 267.849 269.427 266.291C269.312 264.732 273.037 258.167 273.037 258.167C273.037 258.167 273.489 254.719 275.523 253.275C277.557 251.831 277.099 241.367 277.099 241.367C277.099 241.367 277.665 235.915 279.019 233.689C280.373 231.462 277.785 228.46 277.785 228.46ZM176.228 223.82L176.33 226.342C175.728 225.373 175.295 224.675 175.295 224.675L176.228 223.82Z" fill="url(#paint0_linear)"/>
<path d="M264.522 273.854L263.222 279.39C263.222 279.39 252.811 274.077 250.934 267.326C249.056 260.574 254.075 258.011 254.075 258.011L263.776 262.121L264.522 273.854Z" fill="white"/>
<path opacity="0.1" d="M264.522 273.854L263.222 279.39C263.222 279.39 252.811 274.077 250.934 267.326C249.056 260.574 254.075 258.011 254.075 258.011L263.776 262.121L264.522 273.854Z" fill="black"/>
<path d="M206.094 462.263C206.094 462.263 196.466 465.801 189.846 466.246C186.332 466.481 184.484 464.327 183.533 462.251C183.014 461.097 182.679 459.868 182.54 458.61L183.401 449.073L183.858 443.994L197.922 440.342L199.914 446.431L200.101 446.895C200.901 448.928 204.108 457.202 204.012 458.929C204.008 459.371 204.094 459.81 204.263 460.218C204.433 460.627 204.683 460.997 204.999 461.306C205.322 461.67 205.69 461.992 206.094 462.263Z" fill="white"/>
<path d="M271.864 457.413C271.888 457.702 271.859 457.994 271.78 458.273C271.78 458.273 251.186 461.709 246.974 458.273C245.786 457.27 244.402 456.525 242.909 456.088C241.417 455.651 239.85 455.53 238.308 455.734C238.308 455.734 230.34 455.951 229.011 453.327C228.457 452.226 228.601 450.09 228.944 447.984C229.294 446.01 229.76 444.059 230.34 442.141L230.659 441.888L232.555 440.366L254.749 439.71H254.917C254.809 444.247 262.452 449.452 262.452 449.452C270.57 452.461 271.768 455.86 271.864 457.413Z" fill="white"/>
<path opacity="0.1" d="M271.864 457.413C271.885 457.703 271.854 457.994 271.774 458.273C271.774 458.273 251.186 461.709 246.974 458.273C245.787 457.27 244.403 456.526 242.912 456.089C241.421 455.652 239.855 455.531 238.314 455.734C238.314 455.734 230.34 455.951 229.017 453.327C228.463 452.22 228.601 450.09 228.944 447.984C232.013 448.291 236.858 449.055 238.759 450.878C241.636 453.652 246.511 456.42 249.501 456.637C251.842 456.787 265.846 457.232 271.864 457.413Z" fill="black"/>
<path opacity="0.1" d="M206.094 462.263C206.094 462.263 196.466 465.801 189.846 466.246C186.332 466.481 184.484 464.327 183.539 462.245C185.989 463.069 189.389 463.936 191.176 463.141C193.294 462.203 200.805 461.595 205.017 461.336C205.338 461.687 205.699 461.998 206.094 462.263Z" fill="black"/>
<path d="M220.381 177.132C212.437 174.045 202.219 163.846 204.77 159.08C205.337 157.877 205.674 156.579 205.763 155.253C205.928 153.452 205.952 151.642 205.836 149.837C205.657 146.882 205.301 143.941 204.77 141.028C204.77 141.028 229.57 141.588 228.126 145.24C227.705 146.311 227.638 148.171 227.753 150.253C227.867 152.335 228.168 154.687 228.481 156.679C228.914 159.411 229.347 161.493 229.347 161.493C229.347 161.493 227.831 163.617 226.94 163.731C226.05 163.846 231.779 181.531 220.381 177.132Z" fill="#CF6F80"/>
<path opacity="0.1" d="M200.083 446.895L199.896 447.099C192.482 438.133 183.515 449.308 183.515 449.308L183.383 449.073L183.84 443.994L197.904 440.342L199.896 446.431L200.083 446.895Z" fill="black"/>
<path opacity="0.1" d="M254.924 440.342C254.924 440.342 249.507 440.227 246.619 442.779C243.73 445.33 229.769 443.332 230.371 442.779C230.549 442.504 230.656 442.19 230.683 441.864L232.579 440.342L254.773 439.686C254.857 440.089 254.924 440.342 254.924 440.342Z" fill="black"/>
<path d="M209.308 369.933C208.905 370.93 208.598 371.964 208.393 373.02C207.891 375.912 207.752 378.855 207.978 381.781C208.201 385.993 207.978 414.221 207.978 414.221C207.978 414.221 203.218 421.748 200.564 424.402C197.91 427.055 205.98 431.821 205.98 431.821C207.184 438.681 199.89 446.431 199.89 446.431C192.476 437.465 183.509 448.646 183.509 448.646C183.509 448.646 178.635 440.221 177.419 437.213C176.204 434.204 182.179 432.122 184.28 430.901C186.38 429.679 184.177 422.476 184.177 422.476C184.177 422.476 182.402 416.164 180.296 410.406C178.19 404.647 182.619 375.98 182.619 375.98C182.619 375.98 182.847 370.89 183.395 369.115C183.671 367.834 183.726 366.515 183.557 365.215C183.521 364.776 183.479 364.409 183.449 364.162C183.419 363.916 183.395 363.801 183.395 363.801L183.479 363.657L186.488 358.049C186.488 358.049 210.752 366.401 209.308 369.933Z" fill="#B02828"/>
<path d="M254.923 439.68C254.923 439.68 249.507 439.565 246.619 442.087C243.73 444.608 229.769 442.64 230.371 442.087C230.972 441.533 230.924 437.435 230.924 437.435C222.734 426.255 229.721 421.718 229.721 421.718C229.721 421.718 226.062 404.117 225.4 397.589C224.936 393.027 224.365 380.77 224.058 373.772C223.925 370.763 223.847 368.693 223.847 368.693L230.539 367.346L231.4 367.171L247.54 363.934C247.54 363.934 247.985 366.942 248.286 369.403C248.436 370.454 248.52 371.513 248.538 372.575C248.43 373.778 248.538 377.545 248.538 377.545L249.086 388.839C248.728 390.024 248.544 391.254 248.538 392.492C248.647 393.93 250.747 414.521 250.747 414.521C250.747 414.521 254.4 426.809 253.154 427.693C251.909 428.578 254.923 439.68 254.923 439.68Z" fill="#B02828"/>
<path opacity="0.1" d="M228.126 145.24C227.705 146.311 227.638 148.171 227.753 150.253C224.431 152.253 220.612 153.275 216.735 153.203C212.858 153.131 209.08 151.966 205.836 149.843C205.657 146.886 205.301 143.943 204.77 141.028C204.77 141.028 229.57 141.576 228.126 145.24Z" fill="black"/>
<path d="M237.712 131.942C237.717 134.11 237.376 136.265 236.701 138.326C235.194 142.944 232.102 146.88 227.973 149.438C223.844 151.997 218.943 153.014 214.136 152.309C209.33 151.604 204.928 149.222 201.707 145.586C198.487 141.949 196.656 137.291 196.538 132.435C196.538 132.267 196.538 132.11 196.538 131.942C196.491 129.209 196.989 126.493 198.003 123.954C199.017 121.416 200.526 119.104 202.443 117.155C204.359 115.205 206.645 113.657 209.166 112.6C211.688 111.543 214.394 110.999 217.128 110.999C219.862 110.999 222.569 111.543 225.09 112.6C227.611 113.657 229.897 115.205 231.814 117.155C233.73 119.104 235.239 121.416 236.253 123.954C237.267 126.493 237.765 129.209 237.718 131.942H237.712Z" fill="#CF6F80"/>
<path opacity="0.1" d="M220.381 177.132C212.437 174.045 202.219 163.846 204.77 159.08C205.337 157.877 205.674 156.579 205.763 155.253L216.638 164.189L223.366 169.707L228.481 156.685C228.914 159.417 229.347 161.499 229.347 161.499C229.347 161.499 227.831 163.623 226.94 163.737C226.05 163.852 231.779 181.531 220.381 177.132Z" fill="black"/>
<path d="M248.502 216.624L239.421 369.163L227.578 369.939L196.911 281.49L201.942 176.482L203.001 154.296L216.638 165.494L223.372 171.012L228.637 157.612L238.428 166.144L248.502 216.624Z" fill="#B02828"/>
<path opacity="0.1" d="M209.308 369.933C208.905 370.93 208.598 371.964 208.393 373.02C199.776 371.689 191.406 369.075 183.563 365.264L183.401 365.179L183.455 364.211L183.485 363.705L186.494 358.097C186.494 358.097 210.752 366.401 209.308 369.933Z" fill="black"/>
<path opacity="0.1" d="M230.677 373.044C228.474 373.419 226.252 373.672 224.022 373.802C223.889 370.794 223.811 368.724 223.811 368.724L230.503 367.376L230.677 373.044Z" fill="black"/>
<path opacity="0.1" d="M248.25 369.434C243.971 370.547 237.363 371.798 231.448 371.016L231.364 367.201L247.503 363.964C247.503 363.964 247.949 366.942 248.25 369.434Z" fill="black"/>
<path opacity="0.1" d="M231.339 371.714C206.666 375.926 184.069 363.85 184.069 363.85L184.286 359.758C184.286 359.758 184.845 313.37 183.293 309.814C181.74 306.258 180.53 288.224 181.409 285.456C182.288 282.688 178.201 241.18 178.201 241.18L177.54 224.332L153.312 214.518L164.144 191.941C165.607 188.775 166.865 185.519 167.911 182.193C169.795 176.332 178.539 170.573 178.539 170.573C178.539 170.573 187.505 164.821 191.05 165.037C194.594 165.254 199.24 159.946 199.24 159.946C202.67 151.203 205.775 155.163 205.775 155.163C205.775 155.578 205.775 155.163 205.607 156.456C204.403 166.054 225.069 196.381 225.364 196.917L227.331 244.851L229.323 305.512L231.339 371.714Z" fill="black"/>
<path d="M230.677 371.714C206.004 375.926 183.401 363.85 183.401 363.85L183.624 359.758C183.624 359.758 184.183 313.37 182.625 309.814C181.066 306.258 179.862 288.224 180.747 285.456C181.632 282.688 177.54 241.18 177.54 241.18L176.872 224.332L152.632 214.482L163.464 191.904C164.924 188.738 166.182 185.482 167.231 182.156C169.108 176.296 177.858 170.537 177.858 170.537C177.858 170.537 186.825 164.784 190.364 165.001C193.902 165.218 198.554 159.91 198.554 159.91C201.99 151.167 205.775 155.127 205.775 155.127C205.775 155.542 205.414 155.728 205.607 156.42C208.255 165.729 224.407 196.345 224.702 196.881L226.694 244.815L228.686 305.475L230.677 371.714Z" fill="white"/>
<path opacity="0.1" d="M224.028 198.247C221.374 197.14 207.316 181.091 207.316 181.091V177.439C206.805 176.235 203.765 176.969 201.298 177.812L202.357 155.626L203.561 156.625C206.197 165.928 223.721 197.711 224.028 198.247Z" fill="black"/>
<path d="M224.696 196.917C222.036 195.81 207.978 179.762 207.978 179.762V176.109C207.466 174.906 204.427 175.64 201.96 176.482L203.025 154.296L204.229 155.295C206.871 164.598 224.401 196.387 224.696 196.917Z" fill="white"/>
<path opacity="0.1" d="M184.069 276.953C184.4 276.953 201.226 275.184 201.226 275.184C201.226 275.184 211.414 295.216 210.746 300.09C210.078 304.964 208.869 309.278 204.77 308.514C200.672 307.75 182.715 309.116 182.715 309.116L184.069 276.953Z" fill="black"/>
<path d="M183.401 275.623C183.732 275.623 200.558 273.854 200.558 273.854C200.558 273.854 210.74 293.892 210.078 298.76C209.416 303.628 208.195 307.949 204.102 307.184C200.01 306.42 182.047 307.786 182.047 307.786L183.401 275.623Z" fill="white"/>
<path d="M196.081 266.218C196.081 266.218 211.522 274.516 211.853 277.05C212.184 279.583 203.994 275.942 202.225 275.503C201.06 275.223 199.875 275.037 198.68 274.95L186.879 275.269L196.081 266.218Z" fill="#CF6F80"/>
<path opacity="0.1" d="M219.719 199.282C220.616 199.282 221.344 198.554 221.344 197.657C221.344 196.76 220.616 196.032 219.719 196.032C218.821 196.032 218.094 196.76 218.094 197.657C218.094 198.554 218.821 199.282 219.719 199.282Z" fill="black"/>
<path d="M219.719 198.62C220.616 198.62 221.344 197.892 221.344 196.995C221.344 196.098 220.616 195.37 219.719 195.37C218.821 195.37 218.094 196.098 218.094 196.995C218.094 197.892 218.821 198.62 219.719 198.62Z" fill="#3F3D56"/>
<path opacity="0.1" d="M222.71 269.612C223.607 269.612 224.335 268.885 224.335 267.988C224.335 267.09 223.607 266.363 222.71 266.363C221.812 266.363 221.085 267.09 221.085 267.988C221.085 268.885 221.812 269.612 222.71 269.612Z" fill="black"/>
<path d="M222.71 268.944C223.607 268.944 224.335 268.217 224.335 267.32C224.335 266.422 223.607 265.695 222.71 265.695C221.812 265.695 221.085 266.422 221.085 267.32C221.085 268.217 221.812 268.944 222.71 268.944Z" fill="#3F3D56"/>
<path opacity="0.1" d="M221.338 234.447C222.235 234.447 222.963 233.72 222.963 232.822C222.963 231.925 222.235 231.198 221.338 231.198C220.44 231.198 219.713 231.925 219.713 232.822C219.713 233.72 220.44 234.447 221.338 234.447Z" fill="black"/>
<path d="M221.338 233.785C222.235 233.785 222.963 233.058 222.963 232.16C222.963 231.263 222.235 230.536 221.338 230.536C220.44 230.536 219.713 231.263 219.713 232.16C219.713 233.058 220.44 233.785 221.338 233.785Z" fill="#3F3D56"/>
<path d="M258.793 274.613C258.793 274.613 259.9 276.273 258.793 277.05C257.686 277.826 258.901 279.703 258.901 279.703C258.901 279.703 256.139 281.322 257.355 282.778C258.57 284.234 257.8 290.811 257.8 290.811L254.478 296.311C254.478 296.311 254.677 299.855 254.689 304.645C254.689 312.119 254.249 322.625 251.818 327.415L252.155 366.714C252.155 366.714 240.523 370.962 230.786 369.668L229.341 306.607C229.341 306.607 231.448 270.846 232.224 263.986C232.678 260.425 232.863 256.834 232.778 253.245C232.778 253.245 232.447 242.51 231.333 237.528C231.333 237.528 230.13 215.944 230.009 209.968C229.955 207.11 230.106 198.77 230.274 190.839C230.461 182.168 230.671 173.991 230.671 173.991L228.475 156.613C228.475 156.613 230.671 156.39 231.333 157.275C231.63 157.552 231.952 157.8 232.296 158.015C236.088 160.578 249.483 168.461 249.483 168.461C249.483 168.461 256.897 171.409 258.673 175.634C260.448 179.858 261.682 182.854 262.542 184.058C263.403 185.261 263.872 190.918 263.872 190.918C263.872 190.918 266.424 201.328 268.416 203.091C270.407 204.854 271.864 216.07 271.864 216.07L254.262 229.91C254.262 229.91 252.715 252.932 252.384 253.823C252.053 254.713 258.793 274.613 258.793 274.613Z" fill="white"/>
<path d="M259.461 274.613C259.461 274.613 260.562 276.273 259.461 277.05C258.36 277.826 259.563 279.703 259.563 279.703C259.563 279.703 256.819 281.34 258.023 282.796C259.226 284.252 258.468 290.829 258.468 290.829L255.146 296.329C255.146 296.329 255.345 299.873 255.363 304.663C255.363 312.137 254.923 322.643 252.492 327.433L252.823 366.732C252.823 366.732 241.173 370.98 231.448 369.686L230.009 306.625C230.009 306.625 232.116 270.864 232.892 264.004C233.347 260.443 233.53 256.852 233.44 253.263C233.44 253.263 233.109 242.528 232.001 237.546C232.001 237.546 230.798 215.962 230.671 209.987C230.617 207.128 230.774 198.788 230.936 190.857C231.123 182.186 231.333 174.009 231.333 174.009L228.433 156.396C228.433 156.396 231.333 156.396 232.001 157.293C232.295 157.573 232.618 157.821 232.964 158.033C236.756 160.596 250.157 168.479 250.157 168.479C250.157 168.479 257.565 171.428 259.341 175.652C261.116 179.876 262.35 182.872 263.216 184.076C264.083 185.279 264.54 190.936 264.54 190.936C264.54 190.936 267.092 201.346 269.084 203.109C271.075 204.872 272.514 216.064 272.514 216.064L254.911 229.904C254.911 229.904 253.365 252.926 253.028 253.817C252.691 254.707 259.461 274.613 259.461 274.613Z" fill="white"/>
<path opacity="0.1" d="M238.38 179.118L239.969 183.751L231.604 192.175C231.791 183.51 232.001 175.327 232.001 175.327L229.101 157.714C229.101 157.714 232.001 157.714 232.669 158.611C232.962 158.89 233.285 159.136 233.632 159.345L240.745 179.864L238.38 179.118Z" fill="black"/>
<path d="M237.712 177.788L239.307 182.421L230.942 190.845C231.129 182.174 231.339 173.997 231.339 173.997L228.433 156.384C228.433 156.384 231.339 156.384 232.001 157.281C232.297 157.559 232.619 157.807 232.964 158.021L240.083 178.534L237.712 177.788Z" fill="white"/>
<path opacity="0.1" d="M237.712 131.942C237.717 134.11 237.376 136.265 236.701 138.326C236.588 138.344 236.472 138.339 236.36 138.311C236.248 138.283 236.143 138.233 236.051 138.164C235.895 132.748 233.229 127.664 229.949 123.337C229.028 122.031 227.912 120.874 226.639 119.907C225.353 118.941 223.752 118.488 222.15 118.638C220.345 118.884 218.75 120.112 216.927 120.268C214.519 120.467 212.365 118.8 209.976 118.716C209.005 118.725 208.047 118.941 207.166 119.35C206.285 119.759 205.501 120.351 204.867 121.087C203.612 122.571 202.679 124.301 202.129 126.165C201.182 128.992 200.667 131.946 200.6 134.926C200.57 136.611 200.408 138.723 198.843 139.337C198.961 138.098 198.82 136.848 198.429 135.666C198.039 134.484 197.407 133.396 196.574 132.471L196.538 132.435C196.538 132.267 196.538 132.11 196.538 131.942C196.491 129.209 196.989 126.493 198.003 123.954C199.017 121.416 200.526 119.104 202.443 117.155C204.359 115.205 206.645 113.657 209.166 112.6C211.688 111.543 214.394 110.999 217.128 110.999C219.862 110.999 222.569 111.543 225.09 112.6C227.611 113.657 229.897 115.205 231.814 117.155C233.73 119.104 235.239 121.416 236.253 123.954C237.267 126.493 237.765 129.209 237.718 131.942H237.712Z" fill="black"/>
<path d="M225.653 99.2497C222.525 97.7789 218.969 97.5007 215.651 98.4675C213.984 98.9609 212.413 99.7612 210.722 100.164C207.111 101.037 202.899 100.092 199.8 102.204C198.079 103.408 197.044 105.309 196.081 107.156L193.673 111.742C192.362 114.251 191.038 116.802 190.49 119.564C189.942 122.326 190.273 125.419 192.025 127.639C193.3 129.258 195.184 130.275 196.568 131.797C197.397 132.723 198.026 133.811 198.416 134.991C198.805 136.172 198.946 137.42 198.831 138.657C200.401 138.055 200.552 135.937 200.588 134.252C200.655 131.272 201.17 128.318 202.117 125.491C202.666 123.626 203.598 121.897 204.855 120.413C205.489 119.678 206.273 119.086 207.154 118.677C208.035 118.268 208.993 118.052 209.964 118.042C212.371 118.126 214.531 119.787 216.915 119.588C218.72 119.438 220.321 118.204 222.138 117.964C223.741 117.812 225.342 118.265 226.627 119.233C227.9 120.199 229.014 121.356 229.931 122.663C233.217 126.99 235.883 132.062 236.039 137.49C236.719 137.989 237.7 137.339 238.037 136.569C238.374 135.799 238.386 134.896 238.814 134.162C239.307 133.314 240.252 132.862 240.992 132.225C242.87 130.606 243.339 127.88 243.267 125.407C243.195 122.934 242.713 120.425 243.183 117.994C243.465 116.501 244.103 115.105 244.452 113.631C244.801 112.157 244.844 110.502 244.019 109.232C242.816 107.367 240.282 107 238.073 106.826C235.564 106.609 233.319 106.886 231.719 104.774C230.967 103.671 230.121 102.637 229.191 101.681C228.872 101.368 225.653 99.3821 225.653 99.2497Z" fill="#512E4E"/>
<path opacity="0.1" d="M160.244 226.143L153.955 214.518L151.964 232.455C151.964 232.455 153.071 240.422 152.848 241.644C152.626 242.865 157.386 253.817 157.386 253.817C157.386 253.817 173.11 281.821 179.531 283.266L201.226 267.765L195.473 260.46C195.473 260.46 193.481 259.684 192.981 260.46C192.981 260.46 182.3 242.083 181.192 240.753C180.085 239.423 180.302 236.77 180.302 236.77C180.302 236.77 178.641 235.001 179.194 233.34C179.748 231.679 175.987 225.92 175.987 225.92L179.417 222.713L160.244 226.143Z" fill="black"/>
<path d="M154.286 213.194L152.626 214.518L150.634 232.455C150.634 232.455 151.741 240.422 151.518 241.644C151.296 242.865 156.062 253.817 156.062 253.817C156.062 253.817 171.78 281.821 178.202 283.266L199.902 267.765L194.143 260.46C194.143 260.46 192.151 259.684 191.651 260.46C191.651 260.46 180.97 242.083 179.862 240.753C178.755 239.423 178.978 236.77 178.978 236.77C178.978 236.77 177.317 235.001 177.871 233.34C178.424 231.679 174.657 225.92 174.657 225.92L178.087 222.713L154.286 213.194Z" fill="white"/>
<path opacity="0.1" d="M257.355 283.464C258.558 284.926 257.8 291.491 257.8 291.491L254.478 296.991C254.478 296.991 254.677 300.541 254.689 305.325L249.104 307.07C248.599 307.228 248.064 307.262 247.544 307.171C247.023 307.08 246.531 306.865 246.11 306.546C245.689 306.226 245.351 305.81 245.123 305.333C244.895 304.856 244.785 304.331 244.801 303.803L245.764 272.747L258.793 277.73C257.686 278.5 258.901 280.389 258.901 280.389C258.901 280.389 256.139 282.002 257.355 283.464Z" fill="black"/>
<path d="M258.023 282.796C259.226 284.258 258.468 290.829 258.468 290.829L255.146 296.329C255.146 296.329 255.345 299.873 255.363 304.663L249.676 306.438C249.182 306.592 248.658 306.625 248.148 306.535C247.638 306.446 247.157 306.235 246.745 305.922C246.333 305.609 246.002 305.202 245.779 304.735C245.556 304.268 245.448 303.754 245.463 303.237L246.432 272.085L259.467 277.068C258.354 277.838 259.569 279.721 259.569 279.721C259.569 279.721 256.819 281.34 258.023 282.796Z" fill="white"/>
<path d="M262.338 267.994C262.338 267.994 261.453 273.644 259.238 273.975C257.024 274.306 256.031 283.115 253.822 282.802C251.614 282.489 253.076 274.613 253.154 273.084C253.232 271.556 250.747 265.226 252.607 263.787C254.466 262.349 260.352 263.787 260.352 263.787L262.338 267.994Z" fill="#CF6F80"/>
<path opacity="0.1" d="M267.049 224.482L271.226 216.058C271.226 216.058 272.887 222.478 272.887 225.908C272.887 229.338 275.21 229.675 275.21 229.675C275.21 229.675 277.755 232.684 276.413 234.874C275.071 237.064 274.53 242.516 274.53 242.516C274.53 242.516 274.969 252.92 272.977 254.358C270.985 255.796 270.57 259.232 270.57 259.232C270.57 259.232 266.911 265.761 267.025 267.314C267.14 268.866 261.934 279.378 261.934 279.378C261.934 279.378 264.48 266.315 249.646 260.67C249.646 260.67 249.531 256.236 250.639 255.02C251.746 253.805 253.473 253.251 252.39 247.107C251.307 240.964 252.077 233.623 252.077 232.148C252.077 230.674 255.399 221.48 255.399 221.48L267.049 224.482Z" fill="black"/>
<path d="M268.855 214.855L272.502 216.058C272.502 216.058 274.169 222.478 274.169 225.908C274.169 229.338 276.492 229.675 276.492 229.675C276.492 229.675 279.037 232.684 277.695 234.874C276.353 237.064 275.818 242.516 275.818 242.516C275.818 242.516 276.257 252.92 274.265 254.358C272.273 255.796 271.828 259.232 271.828 259.232C271.828 259.232 268.175 265.761 268.289 267.314C268.404 268.866 263.192 279.378 263.192 279.378C263.192 279.378 265.744 266.315 250.904 260.67C250.904 260.67 250.795 256.236 251.903 255.02C253.01 253.805 254.737 253.251 253.654 247.107C252.571 240.964 253.341 233.623 253.341 232.148C253.341 230.674 256.663 221.48 256.663 221.48L268.855 214.855Z" fill="white"/>
<path opacity="0.1" d="M188.306 433.205C188.306 433.205 194.119 429.553 197.934 432.206C201.749 434.86 188.306 433.205 188.306 433.205Z" fill="black"/>
<path opacity="0.1" d="M233.476 421.911C233.476 421.911 238.621 421.249 242.942 425.9C247.263 430.551 233.476 421.911 233.476 421.911Z" fill="black"/>
<g opacity="0.1">
<path opacity="0.1" d="M241.004 130.907C240.264 131.545 239.313 132.002 238.82 132.85C238.398 133.579 238.386 134.475 238.049 135.257C237.712 136.04 236.731 136.677 236.051 136.184C235.895 130.768 233.223 125.684 229.943 121.351C229.026 120.044 227.912 118.887 226.639 117.921C225.351 116.953 223.748 116.5 222.144 116.652C220.339 116.899 218.75 118.126 216.927 118.276C214.519 118.481 212.359 116.814 209.97 116.73C208.999 116.74 208.041 116.957 207.161 117.367C206.281 117.777 205.499 118.37 204.867 119.107C203.61 120.588 202.678 122.316 202.129 124.179C201.183 127.007 200.668 129.96 200.6 132.941C200.564 134.62 200.407 136.714 198.855 137.339C198.891 137.784 198.891 138.231 198.855 138.675C200.42 138.073 200.576 135.955 200.612 134.271C200.679 131.29 201.194 128.336 202.141 125.509C202.69 123.644 203.622 121.915 204.879 120.431C205.512 119.696 206.295 119.104 207.175 118.695C208.055 118.287 209.012 118.07 209.982 118.06C212.389 118.144 214.556 119.805 216.939 119.606C218.744 119.456 220.345 118.222 222.156 117.982C223.76 117.83 225.363 118.283 226.651 119.251C227.924 120.217 229.038 121.374 229.955 122.681C233.235 127.008 235.907 132.08 236.063 137.508C236.743 138.007 237.724 137.357 238.061 136.587C238.398 135.817 238.41 134.914 238.832 134.18C239.325 133.332 240.276 132.881 241.016 132.243C242.894 130.624 243.363 127.898 243.291 125.425C243.291 125.347 243.291 125.269 243.291 125.196C243.177 127.339 242.605 129.523 241.004 130.907Z" fill="black"/>
<path opacity="0.1" d="M196.58 130.48C195.196 128.957 193.306 127.94 192.037 126.328C190.967 124.9 190.357 123.182 190.285 121.4C190.096 123.626 190.718 125.847 192.037 127.652C193.306 129.27 195.196 130.287 196.58 131.809C197.909 133.299 198.707 135.186 198.849 137.177C198.941 135.965 198.788 134.748 198.398 133.597C198.008 132.446 197.39 131.386 196.58 130.48Z" fill="black"/>
<path opacity="0.1" d="M244.464 112.313C244.109 113.788 243.477 115.19 243.189 116.676C243.018 117.669 242.955 118.678 243.002 119.685C243.022 119.111 243.085 118.54 243.189 117.976C243.477 116.483 244.109 115.087 244.464 113.613C244.671 112.8 244.738 111.958 244.663 111.122C244.626 111.523 244.559 111.921 244.464 112.313Z" fill="black"/>
</g>
<path opacity="0.1" d="M79.8753 457.672C112.26 457.672 138.514 453.455 138.514 448.255C138.514 443.054 112.26 438.837 79.8753 438.837C47.4903 438.837 21.2371 443.054 21.2371 448.255C21.2371 453.455 47.4903 457.672 79.8753 457.672Z" fill="#B02828"/>
<path d="M81.765 267.855H77.9918V352.802H81.765V267.855Z" fill="#535461"/>
<path d="M105.475 352.543L105.241 356.37L104.904 361.786L104.765 364.036L104.434 369.452L104.29 371.702L103.953 377.118L100.15 438.537C99.9843 441.179 98.8181 443.659 96.8885 445.473C94.9588 447.286 92.4107 448.296 89.7627 448.297H69.9879C67.3406 448.296 64.7931 447.286 62.8645 445.472C60.9358 443.659 59.7709 441.179 59.6071 438.537L55.8219 377.076L55.4849 371.66L55.3465 369.41L55.0094 363.994L54.871 361.743L54.534 356.328L54.2933 352.501C54.2515 351.764 54.3606 351.027 54.6141 350.334C54.8675 349.641 55.2598 349.007 55.7669 348.471C56.2741 347.936 56.8854 347.509 57.5633 347.218C58.2413 346.927 58.9716 346.777 59.7094 346.778H100.156C100.891 346.785 101.617 346.942 102.289 347.239C102.961 347.537 103.565 347.969 104.063 348.51C104.562 349.05 104.944 349.686 105.187 350.38C105.43 351.074 105.528 351.81 105.475 352.543Z" fill="#3F3D56"/>
<path d="M105.241 356.37L104.904 361.768H54.847L54.51 356.37H105.241Z" fill="#9D9CB5"/>
<path d="M104.765 364.018L104.434 369.422H55.3224L54.9854 364.018H104.765Z" fill="#9D9CB5"/>
<path d="M104.29 371.678L103.959 377.076H55.7978L55.4608 371.678H104.29Z" fill="#9D9CB5"/>
<path d="M48.7509 299.693C70.7221 315.591 79.8934 340.454 79.8934 340.454C79.8934 340.454 53.4147 339.546 31.4374 323.648C9.46011 307.75 0.306908 282.892 0.306908 282.892C0.306908 282.892 26.7736 283.795 48.7509 299.693Z" fill="#B02828"/>
<path d="M0.288868 282.892C0.288868 282.892 27.7786 298.146 36.5948 310.777C45.4109 323.407 79.8934 340.454 79.8934 340.454" stroke="#535461" stroke-width="2" stroke-miterlimit="10"/>
<path d="M62.935 267.669C74.8925 276.316 79.8934 289.848 79.8934 289.848C79.8934 289.848 65.4806 289.355 53.517 280.708C41.5535 272.061 36.5646 258.522 36.5646 258.522C36.5646 258.522 50.9715 259.016 62.935 267.669Z" fill="#B02828"/>
<path d="M36.5646 258.522C36.5646 258.522 51.5251 266.826 56.3213 273.698C61.1176 280.57 79.8934 289.848 79.8934 289.848" stroke="#535461" stroke-width="2" stroke-miterlimit="10"/>
<path d="M97.255 289.162C83.5162 304.26 80.6095 323.991 80.6095 323.991C80.6095 323.991 99.9811 319.237 113.708 304.134C127.435 289.03 130.353 269.305 130.353 269.305C130.353 269.305 110.994 274.065 97.255 289.162Z" fill="#B02828"/>
<path d="M130.365 269.311C130.365 269.311 112.468 284.788 107.919 295.451C103.369 306.113 80.6095 323.991 80.6095 323.991" stroke="#535461" stroke-width="2" stroke-miterlimit="10"/>
<path d="M601.59 283.849C601.59 283.849 591.654 234.423 595.457 228.273C595.457 228.273 595.596 222.557 595.367 215.27C595.367 214.993 595.367 214.716 595.367 214.433C596.036 214.879 596.734 215.281 597.455 215.637C600.959 217.437 604.983 217.956 608.829 217.105L605.82 213.753C605.098 212.953 604.346 212.087 604.189 211.028C604.033 209.968 604.466 209.024 604.839 208.079C607.698 200.858 607.848 191.778 602.342 186.266C597.69 181.633 596.559 175.652 591.51 171.422C587.821 168.323 585.793 163.78 583.879 159.387C582.26 155.674 580.629 151.931 579.703 147.996C578.98 144.921 578.692 141.738 577.699 138.735C576.706 135.733 574.846 132.814 571.939 131.473C570.904 130.997 569.755 130.726 568.81 130.095C567.57 129.258 566.824 127.898 565.928 126.707C561.372 120.689 546.117 124.234 538.895 126.677C536.932 127.292 535.114 128.299 533.551 129.637L533.618 129.529C533.672 129.439 533.738 129.348 533.798 129.258C533.008 129.897 532.325 130.659 531.776 131.515C530.723 133.181 530.284 135.125 529.405 136.93C528.346 139.066 522.454 145.03 524.988 147.43C525.165 147.592 525.369 147.722 525.59 147.816C526.541 148.211 527.588 148.316 528.599 148.116L528.49 148.375C527.625 150.493 527.182 152.76 527.184 155.048C527.184 164.935 535.339 172.95 545.407 172.95C547.299 172.952 549.181 172.662 550.985 172.089C551.027 172.318 551.063 172.547 551.106 172.775C551.106 172.866 551.136 172.956 551.148 173.046L550.829 173.491C550.813 173.464 550.795 173.438 550.775 173.413L541.327 186.615C539.882 187.632 531.565 193.65 531.096 198.163C530.603 203.103 530.109 208.885 530.109 208.885L530.043 210.125C529.63 210.47 529.147 210.721 528.628 210.861C528.108 211.002 527.564 211.028 527.034 210.937C524.085 210.456 524.085 221.768 524.085 221.768C524.085 221.768 522.123 223.574 520.775 222.009C519.427 220.445 515.865 225.746 515.865 225.746L493.538 226.709L493.027 226.739L491.823 223.014C491.694 222.621 491.415 222.295 491.046 222.107C490.678 221.919 490.25 221.884 489.856 222.009C489.762 222.04 489.672 222.078 489.585 222.123L489.501 222.172L489.344 222.28L489.266 222.352C489.223 222.391 489.182 222.434 489.145 222.479L489.073 222.563L489.037 222.599C488.898 222.791 488.806 223.013 488.769 223.247C488.731 223.481 488.749 223.721 488.82 223.947L489.856 227.142C485.547 228.008 481.142 230.451 484.734 237.179L466.524 233.815L472.416 238.761L502.83 245.037C502.427 245.76 502.692 246.807 503.949 248.281C509.366 254.641 519.235 256.368 523.207 256.813C524.256 259.159 525.566 261.38 527.112 263.432L526.769 269.769C526.769 269.769 516.713 318.064 514.872 320.513C515.802 319.46 516.652 318.339 517.417 317.161C514.499 327.084 510.419 340.665 509.347 342.699C507.626 345.948 506.032 359.096 507.993 359.938C508.595 360.197 510.316 360.071 512.772 359.884V360.973L512.663 402.246C512.663 402.246 513.157 427.561 511.803 429.974C510.449 432.387 510.088 437.447 510.088 437.447C510.088 437.447 504.672 447.43 500.381 451.444C500.352 451.475 500.319 451.503 500.285 451.528L500.152 450.589C500.152 450.589 494.995 457.1 483.585 456.733C483.585 456.733 476.719 461.198 486.901 461.438C497.083 461.679 510.088 461.077 510.088 461.077C510.088 461.077 519.169 447.238 526.775 449.043V459.531H529.104V448.874C530.184 448.163 531.109 447.24 531.821 446.162C532.534 445.083 533.02 443.871 533.25 442.598C533.45 441.287 533.304 439.946 532.827 438.708C532.35 437.471 531.558 436.378 530.53 435.54C530.069 435.122 529.698 434.614 529.442 434.047C529.187 433.479 529.051 432.865 529.044 432.242L528.96 432.315C528.96 432.104 528.906 431.887 528.882 431.665C528.214 426.249 527.377 415.075 530.332 406.807C534.382 395.471 535.61 379.681 532.661 370.282C531.709 367.278 530.928 364.222 530.32 361.13C530.248 360.739 530.181 360.365 530.121 360.016C532.137 360.289 534.133 360.691 536.097 361.22C542.927 363.103 557.87 363.452 570.628 363.35C570.658 363.699 570.694 364.066 570.736 364.433C570.963 366.985 571.439 369.508 572.156 371.967C573.757 376.781 574.491 398.004 574.491 398.004C574.491 398.004 576.555 415.454 575.43 422.554C574.828 426.502 574.226 430.467 573.883 434.451V434.529C573.883 434.529 570.501 444.157 568.028 449.386C567.968 449.518 567.901 449.651 567.841 449.777C567.182 449.837 566.533 449.981 565.91 450.204C565.91 450.204 562.594 456.823 559.29 457.918C555.986 459.013 557.081 462.618 564.562 461.294C572.042 459.97 583.337 458.887 583.337 458.887L583.825 452.136L586.124 449.259L585.522 455.993L587.971 455.511L587.646 447.322L591.407 442.616C591.407 442.616 595.951 438.573 589.199 430.618V430.792C589.127 430.678 589.06 430.558 588.982 430.443V430.407C587.863 428.674 586.972 425.443 588.603 419.708C591.552 409.346 593.267 399.941 593.267 399.941C593.267 399.941 599.85 374.747 591.937 362.827H592.286C591.475 361.149 590.902 359.367 590.583 357.531C590.543 357.315 590.507 357.092 590.475 356.863C596.33 356.526 602.077 355.467 606.765 353.181C606.747 353.157 603.925 293.369 601.59 283.849ZM527.251 242.149V242.269L526.047 242.33L527.251 242.149ZM523.122 242.721C522.925 242.765 522.739 242.853 522.581 242.98C522.063 243.712 521.738 244.562 521.636 245.453L519.758 245.031C519.758 245.031 518.441 244.749 516.545 244.43L515.648 243.527C518.116 243.323 520.679 243.022 523.122 242.721Z" fill="url(#paint1_linear)"/>
<path d="M585.245 447.406L584.529 455.933L586.93 455.451L586.569 446.203L585.245 447.406Z" fill="#B02828"/>
<path d="M530.464 406.922C527.57 415.165 528.388 426.291 529.038 431.695C529.279 433.693 529.501 434.908 529.501 434.908C529.501 434.908 525.175 444.765 524.813 445.138C524.452 445.511 512.08 453.062 512.08 453.062L503.432 458.111C503.432 458.111 494.658 454.266 498.864 452.942C499.724 452.597 500.498 452.069 501.133 451.396C505.346 447.394 510.635 437.447 510.635 437.447C510.635 437.447 510.996 432.399 512.32 429.998C513.644 427.597 513.163 402.366 513.163 402.366L513.265 361.238V355.877L529.724 355.997C529.828 357.817 530.065 359.627 530.434 361.413C531.025 364.494 531.79 367.54 532.727 370.535C535.628 379.916 534.424 395.627 530.464 406.922Z" fill="#FFB0B1"/>
<path opacity="0.1" d="M529.501 434.908C529.501 434.908 525.175 444.765 524.813 445.138C524.452 445.511 512.08 453.062 512.08 453.062L503.432 458.111C503.432 458.111 494.658 454.266 498.864 452.942C499.724 452.597 500.498 452.069 501.133 451.396L501.506 454.025L504.389 453.905L529.062 431.707C529.279 433.693 529.501 434.908 529.501 434.908Z" fill="black"/>
<path d="M529.2 432.266L504.389 454.615L501.506 454.735L500.904 450.523C500.904 450.523 495.861 457.01 484.656 456.649C484.656 456.649 477.928 461.096 487.9 461.336C497.871 461.577 510.605 460.975 510.605 460.975C510.605 460.975 519.5 447.135 526.944 448.941V459.393H529.231V448.844C530.294 448.129 531.201 447.205 531.898 446.13C532.595 445.054 533.068 443.849 533.287 442.586C533.485 441.285 533.344 439.956 532.88 438.725C532.415 437.494 531.641 436.403 530.633 435.558C530.182 435.136 529.823 434.626 529.577 434.06C529.33 433.494 529.202 432.884 529.2 432.266Z" fill="#B02828"/>
<path d="M587.532 419.775C585.931 425.491 586.804 428.71 587.899 430.437V430.473C589.304 432.606 590.28 434.991 590.775 437.496L590.872 438.037L579.582 454.494L573.456 456.901C573.456 456.901 563.605 453.538 565.404 452.575C565.855 452.34 566.559 451.089 567.366 449.362C569.773 444.157 573.095 434.553 573.095 434.553V434.475C573.444 430.509 573.998 426.556 574.611 422.621C575.713 415.538 573.691 398.154 573.691 398.154C573.691 398.154 572.968 377.015 571.404 372.208C570.697 369.763 570.228 367.256 570.002 364.722C569.677 361.713 569.604 359.234 569.604 359.234C569.604 359.234 576.092 350.208 587.983 359.956C588.934 360.734 589.771 361.641 590.468 362.652C598.683 374.338 592.069 400.08 592.069 400.08C592.069 400.08 590.414 409.443 587.532 419.775Z" fill="#FFB0B1"/>
<path opacity="0.1" d="M590.89 438.037L579.6 454.494L573.474 456.901C573.474 456.901 563.623 453.538 565.422 452.575C565.873 452.34 566.578 451.089 567.384 449.362C571.554 449.326 573.715 453.297 573.715 453.297L578.998 452.455C578.998 452.455 585.967 438.759 587.532 437.923C589.096 437.086 587.773 431.671 587.773 431.671V430.293C587.815 430.341 587.851 430.395 587.899 430.443V430.479C589.304 432.612 590.281 434.997 590.775 437.502L590.89 438.037Z" fill="black"/>
<path d="M574.076 453.652C574.076 453.652 571.067 448.128 565.302 450.168C565.302 450.168 562.058 456.787 558.814 457.858C555.571 458.929 556.654 462.54 563.984 461.222C571.314 459.904 582.362 458.815 582.362 458.815L582.844 452.082L590.294 442.592C590.294 442.592 594.735 438.567 588.128 430.642V432.02C588.128 432.02 589.452 437.435 587.887 438.272C586.322 439.108 579.378 452.81 579.378 452.81L574.076 453.652Z" fill="#B02828"/>
<path opacity="0.1" d="M529.742 355.985C529.846 357.805 530.083 359.615 530.452 361.4C523.676 360.408 517.387 360.901 513.265 361.226V355.865L529.742 355.985Z" fill="black"/>
<path opacity="0.1" d="M591.136 364.15C591.136 364.15 581.508 364.62 570.026 364.716C569.701 361.707 569.629 359.228 569.629 359.228C569.629 359.228 576.116 350.202 588.007 359.95C588.958 360.728 589.795 361.635 590.493 362.646C590.679 363.159 590.894 363.661 591.136 364.15Z" fill="black"/>
<path d="M591.136 363.067C591.136 363.067 548.963 365.107 536.109 361.503C523.255 357.898 510.515 361.021 508.595 360.185C506.676 359.349 508.234 346.249 509.919 343.005C511.604 339.762 520.848 306.962 520.848 306.962L529.742 260.592L539.112 258.011L539.774 257.824L556.1 253.323L568.064 250.02C568.064 250.02 591.853 342.885 589.812 349.733C589.072 352.355 588.952 355.114 589.463 357.79C589.775 359.618 590.338 361.394 591.136 363.067Z" fill="#B02828"/>
<path d="M498.738 228.881C498.738 228.881 490.313 237.907 496.692 242.937C503.071 247.968 507.265 243.419 507.265 243.419L498.738 228.881Z" fill="#C7DAF5"/>
<path opacity="0.1" d="M498.738 228.881C498.738 228.881 490.313 237.907 496.692 242.937C503.071 247.968 507.265 243.419 507.265 243.419L498.738 228.881Z" fill="black"/>
<path d="M566.806 169.538C566.806 169.538 565.819 170.477 564.333 171.861C562.215 173.84 559.079 176.735 556.299 179.16C552.448 182.511 549.27 184.973 550.407 182.872C551.545 180.772 551.328 177.114 550.763 173.69C550.72 173.461 550.684 173.233 550.642 173.01C550.174 170.496 549.553 168.012 548.783 165.573C548.783 165.573 555.005 157.534 558.447 154.362C559.729 153.159 560.626 152.666 560.68 153.502C560.74 154.627 561.583 157.112 562.63 159.748C562.66 159.832 562.69 159.91 562.726 159.995C563.424 161.8 564.213 163.653 564.905 165.254C565.964 167.709 566.806 169.538 566.806 169.538Z" fill="#FFB0B1"/>
<path opacity="0.1" d="M562.726 159.995C562.141 163.139 560.723 166.07 558.618 168.479C556.514 170.888 553.801 172.688 550.763 173.69C550.284 170.943 549.623 168.231 548.783 165.573C548.783 165.573 560.5 150.439 560.68 153.502C560.722 154.663 561.637 157.239 562.726 159.995Z" fill="black"/>
<path opacity="0.1" d="M549.595 177.734L551.112 175.598C551.112 175.598 552.117 181.723 555.812 179.021C559.507 176.32 559.687 199.354 559.687 199.354L555.721 258.643L527.064 256.928L527.876 228.279L531.12 213.838L539.142 192.843L543.914 185.905L549.595 177.734Z" fill="black"/>
<path d="M559.687 199.721L556.076 253.329L555.697 259.01L539.72 258.053L539.118 258.017L527.082 257.295L527.895 228.64L531.138 214.199L539.16 193.204L543.932 186.266L549.613 178.065L551.13 175.935C551.13 175.935 552.135 182.06 555.83 179.358L555.908 179.304C559.519 177.018 559.687 199.721 559.687 199.721Z" fill="#B02828"/>
<path d="M531.541 209.18C531.541 209.18 530.103 212.189 527.215 211.701C524.326 211.214 524.332 222.533 524.332 222.533C524.332 222.533 522.412 224.338 521.088 222.773C519.764 221.209 516.274 226.498 516.274 226.498L494.405 227.461C494.405 227.461 504.136 231.908 502.228 245.362C502.228 245.362 535.266 243.317 536.35 240.194C537.433 237.071 531.541 209.18 531.541 209.18Z" fill="white"/>
<path opacity="0.03" d="M531.541 209.18C531.541 209.18 530.103 212.189 527.215 211.701C524.326 211.214 524.332 222.533 524.332 222.533C524.332 222.533 522.412 224.338 521.088 222.773C519.764 221.209 516.274 226.498 516.274 226.498L494.405 227.461C494.405 227.461 504.136 231.908 502.228 245.362C502.228 245.362 535.266 243.317 536.35 240.194C537.433 237.071 531.541 209.18 531.541 209.18Z" fill="black"/>
<path d="M467.987 234.531L473.752 239.453L521.209 249.424L515.323 243.419L467.987 234.531Z" fill="white"/>
<path d="M549.685 179.629C548.897 180.833 546.64 186.994 544.757 192.374C543.186 196.857 541.874 200.798 541.874 200.798C541.874 200.798 538.811 220.74 537.246 224.344C535.682 227.948 536.53 242.005 536.53 242.005L530.699 276.719C530.699 276.719 528.057 294.62 523.977 305.313C519.951 315.837 515.468 320.771 515.329 320.928C517.135 318.485 526.974 270.382 526.974 270.382L530.223 209.716C530.223 209.716 530.699 203.951 531.18 199.023C531.662 194.095 541.411 187.367 541.411 187.367L550.811 174.003C551.755 175.267 551.123 177.469 549.685 179.629Z" fill="white"/>
<path d="M525.174 257.596C525.174 257.596 511.333 256.994 504.629 248.943C497.925 240.892 520.125 245.729 520.125 245.729L525.897 247.053L525.174 257.596Z" fill="#FFB0B1"/>
<path opacity="0.1" d="M589.812 349.739C589.072 352.361 588.952 355.12 589.463 357.796C574.365 358.867 558.213 354.787 558.213 354.787C555.204 357.555 547.278 361.635 547.278 361.635L542.957 308.081C540.195 300.86 539.112 263.029 539.112 263.029C539.112 263.029 539.359 261.05 539.714 258.083C539.714 258.011 539.714 257.933 539.744 257.86C540.821 249.574 542.957 234.02 544.004 231.92C545.449 229.031 539.563 221.347 539.563 221.347L542.241 198.511L542.566 195.756C548.211 193.234 552.538 185.183 552.538 185.183L555.86 179.364C559.47 177.048 559.657 199.751 559.657 199.751L556.046 253.359L568.01 250.056C568.01 250.056 591.853 342.891 589.812 349.739Z" fill="black"/>
<path d="M605.309 353.44C588.85 361.611 558.935 354.041 558.935 354.041C555.926 356.809 548 360.889 548 360.889L543.673 307.335C540.917 300.114 539.834 262.283 539.834 262.283C539.834 262.283 543.312 234.056 544.757 231.174C545.178 230.331 544.973 229.08 544.474 227.732C542.018 221.316 541.115 214.411 541.838 207.58L542.993 197.765L543.312 195.015C548.963 192.488 553.29 184.437 553.29 184.437L556.299 179.166L561.835 169.454L564.459 164.857L564.905 165.26L568.305 168.341C568.305 168.341 569.749 169.544 571.915 171.349C576.627 175.321 584.77 182.313 588.97 186.591C592.665 190.358 593.832 205.01 594.169 216.04C594.392 223.303 594.26 228.995 594.26 228.995C590.535 235.127 600.278 284.355 600.278 284.355C602.546 293.868 605.309 353.44 605.309 353.44Z" fill="white"/>
<path opacity="0.03" d="M573.715 184.317C573.715 184.317 562.419 205.817 563.731 213.988C565.043 222.16 568.774 231.408 566.975 233.568C566.356 234.387 565.557 235.051 564.64 235.509C563.722 235.968 562.711 236.207 561.685 236.21C559.88 236.33 555.065 239.694 555.065 240.055C555.065 240.416 550.618 240.416 546.64 242.101C542.662 243.786 536.789 244.743 536.789 244.743C536.789 244.743 525.355 244.382 524.29 245.465C523.225 246.548 522.129 253.028 524.41 258.197C526.691 263.366 529.225 267.223 531.138 267.927C533.052 268.631 545.196 264.564 555.047 263.601C564.899 262.638 575.592 254.834 575.592 254.834C575.592 254.834 587.369 250.621 589.433 243.539C591.498 236.457 586.912 197.531 586.912 197.531C586.912 197.531 583.446 179.388 573.715 184.317Z" fill="black"/>
<path opacity="0.03" d="M572.27 182.511C572.27 182.511 560.975 204.017 562.299 212.183C563.623 220.348 567.342 229.603 565.536 231.769C564.92 232.589 564.123 233.254 563.206 233.712C562.289 234.171 561.278 234.41 560.253 234.411C558.447 234.531 553.633 237.895 553.633 238.256C553.633 238.617 549.186 238.617 545.208 240.296C541.23 241.975 535.357 242.937 535.357 242.937C535.357 242.937 523.923 242.576 522.864 243.66C521.804 244.743 520.697 251.229 522.984 256.392C525.271 261.555 527.798 265.418 529.712 266.122C531.626 266.826 543.77 262.758 553.621 261.802C563.472 260.845 574.166 253.028 574.166 253.028C574.166 253.028 585.937 248.816 587.977 241.74C590.017 234.664 585.456 195.725 585.456 195.725C585.456 195.725 582.001 177.589 572.27 182.511Z" fill="black"/>
<path d="M573.36 183.234C573.36 183.234 562.064 204.739 563.388 212.905C564.712 221.07 568.431 230.325 566.632 232.485C566.016 233.307 565.217 233.973 564.299 234.433C563.381 234.892 562.369 235.132 561.342 235.133C559.537 235.253 554.722 238.617 554.722 238.972C554.722 239.327 550.281 239.333 546.297 241.018C542.313 242.703 536.446 243.659 536.446 243.659C536.446 243.659 525.012 243.298 523.947 244.382C522.882 245.465 521.786 251.951 524.067 257.114C526.348 262.277 528.882 266.14 530.795 266.844C532.709 267.548 544.853 263.481 554.704 262.518C564.555 261.555 575.249 253.751 575.249 253.751C575.249 253.751 587.026 249.538 589.09 242.456C591.155 235.374 586.599 196.448 586.599 196.448C586.599 196.448 583.085 178.335 573.36 183.234Z" fill="white"/>
<path opacity="0.1" d="M573.113 240.916C573.113 240.916 564.086 239.11 567.227 242.119C570.369 245.128 570.351 247.763 574.196 247.643C578.042 247.523 573.113 240.916 573.113 240.916Z" fill="black"/>
<path opacity="0.1" d="M588.368 305.65C588.368 305.65 584.288 308.412 592.093 314.778C599.899 321.145 588.368 305.65 588.368 305.65Z" fill="black"/>
<path opacity="0.1" d="M580.581 328.353C580.581 328.714 579.137 341.591 584.541 344.811C589.945 348.03 580.581 328.353 580.581 328.353Z" fill="black"/>
<path d="M494.778 227.431C490.421 227.581 481.009 228.911 485.89 238.015C490.205 246.072 497.456 240.687 501.536 236.601C500.541 232.792 498.122 229.51 494.778 227.431Z" fill="#FFB0B1"/>
<path d="M501.59 236.529L501.771 236.342L501.59 236.529Z" fill="#FFB0B1"/>
<path opacity="0.1" d="M571.915 171.716C567.294 174.875 563.418 177.541 562.66 178.095C560.59 179.629 556.642 188.637 554.096 193.234C552.068 196.935 545.479 197.886 542.993 198.12L543.312 195.37C548.963 192.843 553.29 184.792 553.29 184.792L564.459 165.212L568.305 168.708C568.305 168.708 569.749 169.911 571.915 171.716Z" fill="black"/>
<path d="M571.915 171.355C567.294 174.514 563.418 177.18 562.66 177.74C560.59 179.268 556.642 188.276 554.096 192.873C552.068 196.574 545.479 197.525 542.993 197.759L543.312 195.009C548.963 192.482 553.29 184.431 553.29 184.431L564.459 164.851L568.305 168.335C568.305 168.335 569.749 169.526 571.915 171.355Z" fill="#DCE7FF"/>
<path d="M563.021 156.023C563.024 159.635 561.928 163.163 559.88 166.138C557.461 169.656 553.86 172.191 549.732 173.281C545.604 174.372 541.222 173.947 537.381 172.084C533.539 170.22 530.493 167.041 528.795 163.124C527.097 159.207 526.86 154.811 528.126 150.733C529.392 146.656 532.078 143.168 535.696 140.901C539.315 138.635 543.626 137.741 547.847 138.381C552.069 139.02 555.921 141.152 558.705 144.389C561.489 147.626 563.02 151.754 563.021 156.023Z" fill="#FFB0B1"/>
<path opacity="0.1" d="M594.169 216.046C591.726 214.543 589.735 212.405 588.41 209.86C587.405 207.874 586.737 205.582 585.022 204.174C583.476 202.91 581.412 202.603 579.486 202.038C573.155 200.166 567.847 194.39 567.649 187.795C567.552 184.69 568.521 181.591 568.082 178.516C567.832 176.776 567.14 175.129 566.072 173.732C565.542 173.064 564.96 172.439 564.333 171.861C563.49 171.066 562.606 170.296 561.835 169.454C561.35 168.932 560.926 168.357 560.572 167.739C560.285 167.233 560.053 166.699 559.88 166.144C558.676 162.462 559.771 158.093 558.447 154.368L558.375 154.164C557.876 152.84 556.859 151.516 555.444 151.414C554.03 151.312 552.821 152.485 551.473 153.008C548.65 154.104 545.605 152.238 543.252 150.337C540.899 148.435 538.245 146.263 535.254 146.684C533.275 146.967 531.71 148.315 529.886 149.013C529.475 149.172 529.05 149.295 528.617 149.38C530.16 145.532 532.995 142.341 536.635 140.357C540.275 138.372 544.493 137.716 548.564 138.503C552.635 139.29 556.305 141.47 558.943 144.668C561.581 147.866 563.023 151.883 563.021 156.029C563.023 157.281 562.892 158.53 562.63 159.754C562.66 159.838 562.69 159.916 562.726 160.001C563.424 161.806 564.212 163.659 564.905 165.26L568.305 168.341C568.305 168.341 569.749 169.544 571.915 171.349C576.627 175.321 584.769 182.313 588.97 186.591C592.665 190.37 593.82 205.016 594.169 216.046Z" fill="black"/>
<path d="M529.676 138.019C530.536 136.268 530.964 134.307 531.993 132.646C533.503 130.239 536.139 128.699 538.847 127.766C545.918 125.329 560.861 121.791 565.326 127.766C566.204 128.969 566.933 130.305 568.148 131.136C569.075 131.767 570.194 132.038 571.211 132.513C574.058 133.849 575.875 136.762 576.844 139.734C577.813 142.707 578.102 145.896 578.812 148.959C579.721 152.888 581.315 156.613 582.904 160.314C584.776 164.682 586.762 169.213 590.372 172.3C595.301 176.512 596.39 182.475 600.964 187.097C606.38 192.584 606.205 201.64 603.413 208.831C603.046 209.776 602.631 210.763 602.775 211.768C602.92 212.773 603.666 213.687 604.37 214.487L607.331 217.827C600.326 219.518 592.4 215.859 589.139 209.439C588.134 207.453 587.466 205.167 585.745 203.753C584.204 202.489 582.134 202.188 580.214 201.622C573.883 199.745 568.575 193.962 568.377 187.367C568.281 184.268 569.25 181.17 568.81 178.101C568.566 176.349 567.871 174.69 566.794 173.287C565.139 171.127 562.642 169.676 561.294 167.27C559.013 163.244 560.746 158.015 559.103 153.694C558.598 152.371 557.587 151.047 556.173 150.945C554.758 150.842 553.549 152.016 552.195 152.539C549.378 153.634 546.333 151.775 543.98 149.867C541.627 147.96 538.974 145.794 535.977 146.221C533.997 146.498 532.438 147.846 530.615 148.55C529.267 149.067 526.535 149.53 525.355 148.393C522.864 146.101 528.635 140.162 529.676 138.019Z" fill="#591D4B"/>
<path opacity="0.1" d="M590.812 207.453C589.801 205.468 589.139 203.181 587.417 201.773C585.877 200.509 583.807 200.202 581.881 199.637C575.556 197.765 570.248 191.983 570.044 185.388C569.948 182.289 570.916 179.184 570.483 176.115C570.231 174.374 569.537 172.727 568.467 171.331C566.806 169.171 564.309 167.721 562.967 165.314C560.686 161.294 562.419 156.065 560.77 151.739C560.271 150.421 559.254 149.097 557.846 148.989C556.437 148.881 555.216 150.066 553.868 150.59C551.051 151.685 548 149.819 545.653 147.918C543.306 146.016 540.64 143.844 537.65 144.265C535.67 144.548 534.105 145.896 532.288 146.594C530.94 147.112 528.202 147.581 527.022 146.444C524.543 144.037 530.314 138.11 531.349 135.979C532.209 134.222 532.637 132.267 533.672 130.606C533.726 130.516 533.786 130.425 533.846 130.335C533.072 130.977 532.404 131.736 531.866 132.586C530.837 134.246 530.41 136.196 529.55 137.959C528.508 140.089 522.737 146.034 525.223 148.423C526.426 149.567 529.134 149.097 530.482 148.58C532.288 147.876 533.864 146.528 535.844 146.251C538.853 145.824 541.501 147.996 543.848 149.898C546.195 151.799 549.264 153.664 552.068 152.569C553.416 152.046 554.596 150.866 556.04 150.975C557.485 151.083 558.447 152.401 558.971 153.725C560.614 158.045 558.881 163.274 561.161 167.3C562.509 169.664 565.007 171.145 566.662 173.317C567.739 174.72 568.433 176.379 568.678 178.131C569.117 181.2 568.148 184.299 568.245 187.398C568.443 194.017 573.751 199.775 580.082 201.653C581.989 202.218 584.072 202.519 585.612 203.783C587.339 205.197 588.019 207.483 589.006 209.469C592.268 215.89 600.193 219.548 607.198 217.857L605.802 216.281C599.73 216.371 593.586 212.917 590.812 207.453Z" fill="black"/>
<path opacity="0.1" d="M549.324 179.99C548.536 181.194 546.279 187.355 544.396 192.735C542.632 192.049 541.032 187.674 541.032 187.674L550.432 174.304C551.394 175.628 550.762 177.824 549.324 179.99Z" fill="black"/>
<path d="M549.685 179.629C548.897 180.833 546.64 186.994 544.757 192.374C542.993 191.694 541.393 187.313 541.393 187.313L550.793 173.949C551.755 175.267 551.124 177.469 549.685 179.629Z" fill="#DCE7FF"/>
<path d="M495.031 241.102L489.819 224.669C489.758 224.476 489.735 224.274 489.751 224.072C489.768 223.871 489.825 223.675 489.918 223.496C490.01 223.316 490.138 223.157 490.292 223.027C490.447 222.896 490.626 222.798 490.818 222.737C491.206 222.616 491.626 222.653 491.987 222.84C492.348 223.027 492.62 223.349 492.744 223.736L497.956 240.151L497.438 243.587L495.031 241.102Z" fill="#BE8B87"/>
<path opacity="0.1" d="M490.313 223.225C490.702 223.102 491.123 223.138 491.485 223.325C491.847 223.512 492.12 223.835 492.245 224.224L497.456 240.639L497.065 243.214L497.444 243.611L497.962 240.175L492.72 223.76C492.596 223.373 492.324 223.051 491.963 222.864C491.602 222.677 491.182 222.64 490.794 222.761C490.468 222.867 490.186 223.079 489.994 223.363C490.096 223.308 490.203 223.262 490.313 223.225Z" fill="white"/>
<path d="M495.031 241.102L497.956 240.175L497.528 242.992L497.438 243.611L496.584 242.721L495.031 241.102Z" fill="#EFC8C4"/>
<path d="M496.584 242.721C496.634 242.656 496.698 242.603 496.77 242.564C496.812 242.538 496.862 242.523 496.912 242.523C496.962 242.523 497.011 242.538 497.053 242.564C497.094 242.614 497.128 242.668 497.155 242.727C497.195 242.793 497.249 242.85 497.314 242.893C497.378 242.935 497.452 242.963 497.528 242.974L497.438 243.575L496.584 242.721Z" fill="#727A9C"/>
<path d="M489.789 230.506C489.789 230.506 500.242 230.445 497.781 234.892C495.32 239.339 491.474 239.875 491.474 239.875L489.789 230.506Z" fill="#FFB0B1"/>
<path d="M424.778 30.9411H424.327C406.369 30.9411 390.488 40.4424 381.353 54.4628C372.218 40.4424 356.337 30.9411 338.379 30.9411H337.928C324.452 31.0695 311.57 36.5107 302.083 46.0823C292.597 55.6539 287.271 68.5824 287.264 82.0582C287.264 98.7924 294.593 122.537 308.886 142.075C336.117 179.304 381.353 211.876 381.353 211.876C381.353 211.876 426.59 179.31 453.814 142.075C468.113 122.537 475.437 98.7924 475.437 82.0582C475.429 68.5834 470.104 55.6558 460.619 46.0844C451.133 36.513 438.254 31.0711 424.778 30.9411ZM418.321 144.939C416.276 144.931 414.281 144.306 412.598 143.144C410.915 141.982 409.623 140.338 408.891 138.429H398.155C397.448 138.424 396.76 138.199 396.187 137.785C395.614 137.371 395.185 136.788 394.96 136.118L391.662 126.183L381.227 162.642C381.024 163.344 380.598 163.961 380.014 164.4C379.431 164.84 378.72 165.078 377.989 165.079H377.779C377.016 165.042 376.289 164.745 375.72 164.237C375.15 163.729 374.772 163.04 374.649 162.287L363.895 97.613L356.036 135.883C355.856 136.61 355.437 137.256 354.847 137.717C354.257 138.179 353.529 138.429 352.78 138.429H337.657C337.204 138.448 336.751 138.375 336.327 138.215C335.902 138.055 335.515 137.81 335.187 137.496C334.86 137.182 334.599 136.805 334.421 136.388C334.243 135.971 334.151 135.522 334.151 135.068C334.151 134.614 334.243 134.165 334.421 133.748C334.599 133.331 334.86 132.954 335.187 132.64C335.515 132.326 335.902 132.081 336.327 131.921C336.751 131.761 337.204 131.688 337.657 131.707H350.132L361.265 80.253C361.448 79.4923 361.89 78.8187 362.514 78.3473C363.139 77.8759 363.907 77.6361 364.689 77.6687C365.471 77.7014 366.217 78.0046 366.8 78.5265C367.383 79.0484 367.767 79.7565 367.885 80.5298L378.868 146.504L388.22 113.884C388.414 113.197 388.826 112.591 389.393 112.157C389.96 111.724 390.653 111.485 391.367 111.477H391.433C392.14 111.477 392.829 111.701 393.402 112.116C393.975 112.531 394.402 113.116 394.623 113.788L400.586 131.725H408.759C409.34 129.96 410.397 128.39 411.814 127.188C413.231 125.986 414.953 125.198 416.79 124.913C418.626 124.628 420.506 124.855 422.221 125.57C423.936 126.285 425.42 127.461 426.51 128.966C427.599 130.471 428.252 132.249 428.395 134.101C428.538 135.954 428.167 137.81 427.321 139.465C426.476 141.12 425.19 142.509 423.605 143.48C422.02 144.45 420.197 144.963 418.339 144.963L418.321 144.939Z" fill="#B02828"/>
</g>
<defs>
<linearGradient id="paint0_linear" x1="214.435" y1="466.264" x2="214.435" y2="95.9943" gradientUnits="userSpaceOnUse">
<stop stop-color="#808080" stop-opacity="0.25"/>
<stop offset="0.54" stop-color="#808080" stop-opacity="0.12"/>
<stop offset="1" stop-color="#808080" stop-opacity="0.1"/>
</linearGradient>
<linearGradient id="paint1_linear" x1="134328" y1="279374" x2="134328" y2="89310.8" gradientUnits="userSpaceOnUse">
<stop stop-color="#808080" stop-opacity="0.25"/>
<stop offset="0.54" stop-color="#808080" stop-opacity="0.12"/>
<stop offset="1" stop-color="#808080" stop-opacity="0.1"/>
</linearGradient>
<clipPath id="clip0">
<rect width="665" height="471" fill="white"/>
</clipPath>
</defs>
</svg>
