<svg width="547" height="370" viewBox="0 0 547 370" fill="none" xmlns="http://www.w3.org/2000/svg">
<path d="M167.422 171.588H97.0111V250.339H167.422V171.588Z" fill="#CCCCCC"/>
<path d="M61.1659 368.785H25.3204L21.4798 338.053H65.0065L61.1659 368.785Z" fill="#E6E6E6"/>
<path d="M133.145 346.525L131.935 363.066C131.881 363.815 131.986 364.567 132.246 365.271C132.506 365.975 132.913 366.616 133.44 367.15C133.967 367.684 134.603 368.1 135.304 368.368C136.005 368.636 136.755 368.752 137.504 368.706L145.998 368.192C146.392 368.168 146.775 368.057 147.121 367.869C147.467 367.68 147.768 367.417 148.001 367.099C148.234 366.781 148.394 366.415 148.47 366.028C148.546 365.641 148.536 365.242 148.44 364.86L143.725 345.996L133.145 346.525Z" fill="#E6E6E6"/>
<path d="M204.193 356.306C214.19 358.645 221.331 361.97 226.022 366.47C227.693 368.06 229.879 368.998 232.182 369.111C235.124 369.266 237.53 368.936 239.338 368.128H239.338C239.802 367.924 240.202 367.6 240.497 367.189C240.792 366.778 240.972 366.295 241.018 365.791C241.073 365.279 240.99 364.761 240.778 364.292C240.565 363.823 240.231 363.42 239.81 363.123L216.101 346.25L206.03 350.279L203.681 352.629C203.426 352.884 203.235 353.194 203.12 353.535C203.006 353.876 202.972 354.239 203.022 354.595C203.072 354.952 203.203 355.292 203.406 355.589C203.61 355.885 203.879 356.131 204.193 356.306H204.193Z" fill="#E6E6E6"/>
<path d="M173.428 86.2385L105.659 85.6109C105.829 75.7378 108.126 66.0426 113.146 57.3669C116.443 51.669 116.372 45.468 115.577 40.2437C114.351 32.1817 117.202 23.933 123.538 18.8009C128.38 14.8721 134.491 12.8497 140.72 13.1146L142.036 13.1695C146.322 13.3477 150.495 14.6001 154.172 16.8117C157.848 19.0234 160.91 22.1234 163.076 25.8272C165.278 29.7811 166.166 34.3329 165.612 38.8248C165.183 43.0512 166.21 47.3208 168.615 51.631C172.762 61.0956 173.661 73.2067 173.428 86.2385Z" fill="#2F2E41"/>
<path d="M218.769 347.13L205.469 350.6L140.702 209.466L144.75 347.13H131.449C117.237 282.363 91.577 207.614 103.113 184.015L171.929 179.966L218.769 347.13Z" fill="#B02828"/>
<path d="M140.123 62.547C150.024 62.547 158.05 54.519 158.05 44.616C158.05 34.7129 150.024 26.6849 140.123 26.6849C130.223 26.6849 122.197 34.7129 122.197 44.616C122.197 54.519 130.223 62.547 140.123 62.547Z" fill="#FFB9B9"/>
<path d="M155.737 77.5859L126.245 75.8507C129.135 69.2152 130.289 62.8256 129.136 56.7628H151.111C151.061 61.4178 153.377 69.4702 155.737 77.5859Z" fill="#FFB9B9"/>
<path d="M174.242 185.172L109.475 189.8L116.125 74.9832L127.401 71.8017L140.123 74.6938L152.845 68.3309L160.941 71.2236L174.242 185.172Z" fill="#B02828"/>
<path d="M120.462 267.886L76.2233 257.764C89.3777 214.132 113.076 114.314 105.426 78.7429L128.558 68.3313L120.462 267.886Z" fill="#E6E6E6"/>
<path d="M99.0653 141.791L82.2952 131.379L96.5971 89.4812C98.1923 85.1579 101.248 81.528 105.235 79.219L110.053 76.4291L107.161 118.654L99.0653 141.791Z" fill="#E6E6E6"/>
<path d="M212.697 258.342C198.735 266.422 163.833 270.926 148.508 265.283C147.381 225.861 145.169 114.351 152.267 67.1744L177.711 77.586L175.398 108.821C163.234 135.54 198.557 228.605 212.697 258.342Z" fill="#E6E6E6"/>
<path d="M210.674 136.585L195.06 131.379L174.242 107.664L177.712 77.5858L212.408 126.173L210.674 136.585Z" fill="#E6E6E6"/>
<path d="M161.741 159.099C161.996 160.22 162.686 161.194 163.658 161.808C164.631 162.422 165.807 162.624 166.929 162.372L180.183 159.37L178.267 150.908L165.013 153.909C163.891 154.164 162.916 154.853 162.303 155.826C161.689 156.8 161.487 157.977 161.741 159.099Z" fill="#FFB9B9"/>
<path d="M155.737 39.9886C145.78 35.8933 135.946 35.5969 126.245 39.4102L122.197 24.9497H159.206L155.737 39.9886Z" fill="#2F2E41"/>
<path d="M173.664 149.31L181.181 163.192C193.826 159.665 204.784 148.544 215.3 135.428L212.408 126.173L194.482 130.801L173.664 149.31Z" fill="#E6E6E6"/>
<path d="M168.17 120.678H165.857C165.857 87.9546 159.121 65.15 152.556 65.15L151.978 62.8363C157.865 62.8363 161.618 72.3274 163.73 80.2897C166.593 91.084 168.17 105.428 168.17 120.678Z" fill="#3F3D56"/>
<path d="M114.968 112.58H112.655C112.655 82.6106 119.438 63.993 129.425 63.993L128.847 66.3067C121.938 66.3067 114.968 80.615 114.968 112.58Z" fill="#3F3D56"/>
<path d="M167.013 127.041C170.207 127.041 172.796 124.451 172.796 121.257C172.796 118.062 170.207 115.472 167.013 115.472C163.82 115.472 161.23 118.062 161.23 121.257C161.23 124.451 163.82 127.041 167.013 127.041Z" fill="#3F3D56"/>
<path d="M105.716 126.462H103.402C103.402 118.17 108.072 111.423 113.812 111.423V113.737C109.347 113.737 105.716 119.446 105.716 126.462Z" fill="#3F3D56"/>
<path d="M124.221 126.462H121.907C121.907 119.446 118.276 113.737 113.812 113.737V111.423C119.551 111.423 124.221 118.17 124.221 126.462Z" fill="#3F3D56"/>
<path d="M123.064 129.355C124.341 129.355 125.377 128.319 125.377 127.041C125.377 125.763 124.341 124.727 123.064 124.727C121.786 124.727 120.751 125.763 120.751 127.041C120.751 128.319 121.786 129.355 123.064 129.355Z" fill="#3F3D56"/>
<path d="M104.559 129.355C105.836 129.355 106.872 128.319 106.872 127.041C106.872 125.763 105.836 124.727 104.559 124.727C103.281 124.727 102.246 125.763 102.246 127.041C102.246 128.319 103.281 129.355 104.559 129.355Z" fill="#3F3D56"/>
<path d="M75.6449 105.765L90.0772 108.343L123.064 155.258L105.539 151.133L75.6449 105.765Z" fill="#B02828"/>
<path d="M73.0851 105.191C72.8652 105.194 72.6502 105.256 72.4626 105.371C72.275 105.486 72.1218 105.649 72.0188 105.844C71.9159 106.038 71.867 106.257 71.8774 106.476C71.8878 106.696 71.9571 106.909 72.0779 107.093L102.912 153.888C103.084 154.149 103.35 154.335 103.655 154.406L118.001 157.783C118.243 157.84 118.497 157.822 118.728 157.731C118.959 157.641 119.158 157.482 119.297 157.276C119.436 157.07 119.51 156.827 119.507 156.578C119.505 156.33 119.427 156.088 119.284 155.884L85.43 107.736C85.3382 107.605 85.2215 107.493 85.0864 107.407C84.9514 107.321 84.8008 107.263 84.6431 107.235L73.3164 105.212C73.24 105.198 73.1627 105.191 73.0851 105.191Z" fill="#3F3D56"/>
<path d="M92.3197 138.648L93.1766 147.282L106.7 145.94C107.844 145.826 108.897 145.262 109.626 144.372C110.355 143.482 110.701 142.339 110.587 141.194C110.474 140.049 109.91 138.996 109.02 138.267C108.13 137.538 106.988 137.192 105.843 137.306L92.3197 138.648Z" fill="#FFB9B9"/>
<path d="M80.5606 137.648C80.5803 140.592 81.7624 143.409 83.8494 145.485C85.9364 147.561 88.7591 148.728 91.7024 148.732H93.926L95.5448 135.238L82.1413 130.411L80.5606 137.648Z" fill="#E6E6E6"/>
<path d="M547 0H283.28V138.935H547V0Z" fill="#E6E6E6"/>
<path d="M290.961 131.252H539.319V7.68298H290.961V131.252Z" fill="white"/>
<path d="M398.497 25.6101H310.164V113.965H398.497V25.6101Z" fill="#3F3D56"/>
<path d="M377.374 65.946C378.788 65.946 379.934 64.7994 379.934 63.385C379.934 61.9706 378.788 60.824 377.374 60.824C375.96 60.824 374.814 61.9706 374.814 63.385C374.814 64.7994 375.96 65.946 377.374 65.946Z" fill="#B02828"/>
<path d="M367.773 56.9825C369.187 56.9825 370.333 55.8359 370.333 54.4215C370.333 53.0071 369.187 51.8605 367.773 51.8605C366.358 51.8605 365.212 53.0071 365.212 54.4215C365.212 55.8359 366.358 56.9825 367.773 56.9825Z" fill="#B02828"/>
<path d="M366.492 63.3849C365.55 63.3851 364.627 63.6469 363.825 64.1411C363.118 63.0783 362.288 62.1034 361.351 61.237C361.362 61.1004 361.372 60.9634 361.372 60.824C361.372 59.819 361.077 58.836 360.523 57.9977C359.969 57.1593 359.181 56.5027 358.256 56.1096C357.331 55.7166 356.311 55.6045 355.323 55.7874C354.335 55.9703 353.423 56.44 352.7 57.1381C351.329 56.9434 349.938 56.9313 348.564 57.102C348.565 57.0618 348.57 57.0228 348.57 56.9824C348.571 56.1251 348.357 55.2812 347.947 54.5281C347.537 53.7751 346.945 53.1369 346.225 52.6721C345.505 52.2073 344.679 51.9307 343.825 51.8678C342.97 51.8049 342.113 51.9576 341.332 52.3119C340.552 52.6663 339.873 53.2109 339.357 53.8959C338.842 54.5809 338.507 55.3843 338.382 56.2326C338.258 57.0808 338.348 57.9467 338.645 58.751C338.942 59.5552 339.436 60.2719 340.082 60.8356C339.225 61.5701 338.447 62.3928 337.762 63.29C337.13 62.7639 336.381 62.3978 335.577 62.2227C334.774 62.0476 333.94 62.0685 333.147 62.2839C332.353 62.4992 331.623 62.9025 331.018 63.4598C330.413 64.017 329.951 64.7117 329.672 65.4852C329.392 66.2587 329.303 67.0881 329.412 67.9034C329.52 68.7187 329.824 69.4958 330.296 70.169C330.768 70.8423 331.396 71.3918 332.125 71.7712C332.855 72.1505 333.665 72.3486 334.487 72.3485L334.504 72.3477C334.495 72.5606 334.487 72.7737 334.487 72.9888C334.488 74.2775 334.643 75.5615 334.951 76.813C333.429 77.3858 332.077 78.3359 331.023 79.5743C329.969 80.8127 329.247 82.2987 328.924 83.8928C328.601 85.4869 328.689 87.1368 329.178 88.6878C329.668 90.2388 330.543 91.64 331.723 92.7598C332.902 93.8797 334.346 94.6814 335.92 95.0899C337.494 95.4984 339.146 95.5002 340.721 95.0951C342.296 94.6901 343.742 93.8914 344.924 92.7742C346.105 91.6569 346.984 90.2576 347.477 88.7077C351.039 89.3925 354.728 88.8451 357.937 87.1556C358.265 87.9274 358.777 88.6069 359.429 89.1345C360.08 89.6621 360.852 90.0217 361.675 90.1816C362.497 90.3415 363.347 90.2969 364.149 90.0517C364.95 89.8065 365.68 89.3681 366.273 88.7752C366.865 88.1823 367.304 87.4528 367.549 86.651C367.794 85.8491 367.838 84.9992 367.679 84.1761C367.519 83.3529 367.159 82.5816 366.632 81.9299C366.104 81.2781 365.425 80.7658 364.653 80.438C365.762 78.3329 366.385 76.0059 366.476 73.6282L366.492 73.629C367.85 73.629 369.153 73.0894 370.113 72.1288C371.074 71.1683 371.613 69.8654 371.613 68.507C371.613 67.1486 371.074 65.8457 370.113 64.8852C369.153 63.9246 367.85 63.385 366.492 63.385V63.3849Z" fill="#B02828"/>
<path d="M365.212 23.6893H339.608V27.5308H365.212V23.6893Z" fill="#E6E6E6"/>
<path d="M511.155 25.6101H422.821V113.965H511.155V25.6101Z" fill="#3F3D56"/>
<path d="M483.758 85.5377C484.395 85.5377 484.911 85.0217 484.911 84.3852C484.911 83.7488 484.395 83.2328 483.758 83.2328C483.122 83.2328 482.606 83.7488 482.606 84.3852C482.606 85.0217 483.122 85.5377 483.758 85.5377Z" fill="#B02828"/>
<path d="M479.438 81.5041C480.074 81.5041 480.59 80.9882 480.59 80.3517C480.59 79.7152 480.074 79.1992 479.438 79.1992C478.801 79.1992 478.286 79.7152 478.286 80.3517C478.286 80.9882 478.801 81.5041 479.438 81.5041Z" fill="#B02828"/>
<path d="M478.862 84.3852C478.438 84.3853 478.022 84.5031 477.661 84.7255C477.343 84.2472 476.969 83.8085 476.548 83.4186C476.553 83.3572 476.557 83.2955 476.557 83.2327C476.558 82.7805 476.425 82.3382 476.175 81.9609C475.926 81.5837 475.571 81.2882 475.155 81.1113C474.739 80.9344 474.28 80.884 473.835 80.9663C473.391 81.0486 472.98 81.26 472.655 81.5741C472.038 81.4865 471.412 81.4811 470.794 81.5579C470.794 81.5398 470.796 81.5222 470.796 81.5041C470.797 81.1183 470.7 80.7385 470.516 80.3996C470.332 80.0607 470.065 79.7736 469.741 79.5644C469.417 79.3552 469.046 79.2308 468.661 79.2025C468.276 79.1742 467.891 79.2429 467.54 79.4024C467.188 79.5618 466.883 79.8069 466.651 80.1151C466.419 80.4234 466.268 80.7849 466.212 81.1666C466.156 81.5484 466.197 81.938 466.33 82.2999C466.464 82.6618 466.686 82.9843 466.977 83.238C466.591 83.5685 466.241 83.9387 465.933 84.3425C465.649 84.1058 465.311 83.941 464.95 83.8622C464.588 83.7834 464.213 83.7928 463.856 83.8897C463.499 83.9866 463.17 84.1681 462.898 84.4189C462.626 84.6696 462.418 84.9822 462.292 85.3303C462.166 85.6784 462.126 86.0516 462.175 86.4185C462.224 86.7854 462.361 87.1351 462.573 87.438C462.786 87.741 463.068 87.9883 463.396 88.159C463.725 88.3297 464.089 88.4188 464.459 88.4188L464.467 88.4184C464.463 88.5142 464.459 88.6102 464.459 88.7069C464.459 89.2868 464.529 89.8646 464.668 90.4278C463.983 90.6856 463.375 91.1131 462.9 91.6704C462.426 92.2277 462.101 92.8964 461.956 93.6137C461.811 94.3311 461.85 95.0735 462.07 95.7715C462.291 96.4694 462.685 97.1 463.215 97.6039C463.746 98.1078 464.396 98.4686 465.104 98.6524C465.812 98.8362 466.556 98.837 467.264 98.6548C467.973 98.4725 468.624 98.1131 469.156 97.6103C469.687 97.1076 470.083 96.4779 470.304 95.7804C471.907 96.0886 473.567 95.8423 475.012 95.082C475.159 95.4293 475.39 95.7351 475.683 95.9725C475.976 96.2099 476.323 96.3717 476.693 96.4437C477.064 96.5156 477.446 96.4956 477.807 96.3852C478.168 96.2749 478.496 96.0776 478.763 95.8108C479.029 95.544 479.227 95.2157 479.337 94.8549C479.447 94.4941 479.467 94.1116 479.395 93.7412C479.323 93.3708 479.162 93.0237 478.924 92.7304C478.687 92.4371 478.381 92.2066 478.034 92.0591C478.533 91.1118 478.813 90.0646 478.854 88.9947L478.862 88.995C479.473 88.995 480.059 88.7522 480.491 88.3199C480.923 87.8877 481.166 87.3014 481.166 86.6901C481.166 86.0788 480.923 85.4926 480.491 85.0603C480.059 84.628 479.473 84.3852 478.862 84.3852V84.3852Z" fill="#B02828"/>
<path d="M492.798 63.6678C493.434 63.6678 493.95 63.1518 493.95 62.5154C493.95 61.8789 493.434 61.3629 492.798 61.3629C492.161 61.3629 491.646 61.8789 491.646 62.5154C491.646 63.1518 492.161 63.6678 492.798 63.6678Z" fill="#B02828"/>
<path d="M495.508 58.4145C496.144 58.4145 496.66 57.8986 496.66 57.2621C496.66 56.6256 496.144 56.1096 495.508 56.1096C494.872 56.1096 494.356 56.6256 494.356 57.2621C494.356 57.8986 494.872 58.4145 495.508 58.4145Z" fill="#B02828"/>
<path d="M491.47 57.8008C491.355 57.3927 491.129 57.0245 490.817 56.7372C491.191 56.3015 491.512 55.8228 491.773 55.3112C491.834 55.2992 491.894 55.2868 491.955 55.2698C492.39 55.1475 492.78 54.8998 493.075 54.5575C493.371 54.2152 493.559 53.7934 493.616 53.3449C493.674 52.8963 493.598 52.4407 493.398 52.035C493.198 51.6293 492.883 51.2913 492.493 51.0633C492.41 50.4455 492.246 49.8413 492.004 49.2667C492.022 49.2622 492.039 49.2596 492.057 49.2547C492.428 49.1506 492.767 48.9549 493.043 48.6856C493.32 48.4162 493.524 48.0818 493.637 47.7131C493.751 47.3444 493.77 46.9531 493.693 46.575C493.616 46.197 493.445 45.8444 493.196 45.5494C492.948 45.2545 492.629 45.0267 492.269 44.887C491.91 44.7472 491.521 44.6999 491.139 44.7495C490.756 44.7991 490.392 44.9439 490.08 45.1707C489.768 45.3975 489.518 45.699 489.353 46.0475C488.93 45.7657 488.479 45.5292 488.007 45.3418C488.157 45.0038 488.225 44.6344 488.202 44.265C488.18 43.8955 488.069 43.5368 487.879 43.2193C487.689 42.9017 487.426 42.6346 487.111 42.4405C486.795 42.2464 486.438 42.1311 486.069 42.1043C485.7 42.0775 485.33 42.14 484.99 42.2865C484.65 42.433 484.351 42.6593 484.117 42.946C483.883 43.2328 483.722 43.5717 483.646 43.9341C483.571 44.2965 483.584 44.6717 483.685 45.0279L483.687 45.0349C483.594 45.0572 483.5 45.0798 483.407 45.106C482.849 45.2633 482.312 45.4873 481.808 45.7732C481.374 45.1837 480.798 44.7141 480.133 44.4084C479.468 44.1028 478.736 43.9711 478.007 44.0257C477.277 44.0804 476.573 44.3196 475.961 44.7209C475.349 45.1221 474.849 45.6724 474.508 46.3199C474.167 46.9674 473.996 47.691 474.011 48.4227C474.026 49.1545 474.227 49.8704 474.595 50.5033C474.962 51.1362 475.484 51.6653 476.112 52.041C476.74 52.4167 477.453 52.6266 478.185 52.6511C478.323 54.2779 479.01 55.8093 480.133 56.9939C479.839 57.2301 479.607 57.5349 479.458 57.8815C479.309 58.2282 479.247 58.6061 479.278 58.9822C479.309 59.3582 479.432 59.7209 479.636 60.0383C479.84 60.3558 480.119 60.6183 480.448 60.8028C480.777 60.9873 481.147 61.0881 481.524 61.0965C481.901 61.1049 482.274 61.0206 482.611 60.8509C482.948 60.6812 483.239 60.4314 483.456 60.1234C483.674 59.8153 483.813 59.4585 483.861 59.0842C484.908 59.3079 485.992 59.2939 487.032 59.0433L487.034 59.0504C487.116 59.3419 487.254 59.6145 487.442 59.8525C487.629 60.0905 487.861 60.2893 488.125 60.4374C488.389 60.5856 488.68 60.6803 488.98 60.716C489.281 60.7518 489.586 60.7279 489.877 60.6459C490.169 60.5638 490.441 60.425 490.679 60.2376C490.917 60.0502 491.115 59.8177 491.263 59.5535C491.411 59.2893 491.506 58.9985 491.541 58.6978C491.577 58.397 491.553 58.0922 491.47 57.8008V57.8008Z" fill="#B02828"/>
<path d="M448.172 48.0071C448.808 48.0071 449.324 47.4911 449.324 46.8546C449.324 46.2181 448.808 45.7021 448.172 45.7021C447.536 45.7021 447.02 46.2181 447.02 46.8546C447.02 47.4911 447.536 48.0071 448.172 48.0071Z" fill="#B02828"/>
<path d="M442.281 48.4792C442.917 48.4792 443.433 47.9633 443.433 47.3268C443.433 46.6903 442.917 46.1743 442.281 46.1743C441.645 46.1743 441.129 46.6903 441.129 47.3268C441.129 47.9633 441.645 48.4792 442.281 48.4792Z" fill="#B02828"/>
<path d="M444.871 50.4719C444.585 50.7851 444.392 51.1716 444.312 51.5881C443.745 51.5005 443.169 51.4808 442.597 51.5294C442.555 51.4843 442.512 51.4394 442.466 51.3971C442.132 51.092 441.716 50.8918 441.27 50.8216C440.823 50.7514 440.366 50.8143 439.954 51.0025C439.543 51.1906 439.197 51.4956 438.958 51.8795C438.719 52.2634 438.598 52.7092 438.61 53.1613C438.13 53.558 437.704 54.0168 437.343 54.5254C437.33 54.5129 437.319 54.4994 437.306 54.4871C437.021 54.2267 436.676 54.0418 436.301 53.9495C435.927 53.8572 435.535 53.8603 435.162 53.9587C434.789 54.0571 434.447 54.2476 434.167 54.5126C433.886 54.7777 433.677 55.1089 433.558 55.4758C433.439 55.8428 433.414 56.2338 433.485 56.6129C433.556 56.9921 433.721 57.3473 433.965 57.6461C434.21 57.9448 434.525 58.1774 434.882 58.3227C435.239 58.468 435.627 58.5212 436.011 58.4775C435.995 58.9853 436.032 59.4934 436.122 59.9934C435.756 60.0439 435.407 60.1819 435.105 60.3959C434.803 60.6098 434.557 60.8933 434.388 61.2225C434.218 61.5516 434.131 61.9167 434.132 62.2868C434.134 62.6569 434.225 63.0212 434.397 63.3488C434.569 63.6764 434.818 63.9578 435.121 64.169C435.425 64.3803 435.776 64.5152 436.143 64.5624C436.51 64.6097 436.882 64.5678 437.23 64.4404C437.577 64.313 437.889 64.1037 438.138 63.8304L438.143 63.8247C438.211 63.8921 438.28 63.9594 438.351 64.0246C438.779 64.4156 439.253 64.7534 439.762 65.0309C439.491 65.7106 439.396 66.4481 439.488 67.1743C439.58 67.9004 439.854 68.5914 440.286 69.1823C440.718 69.7732 441.293 70.2447 441.956 70.5526C442.62 70.8604 443.351 70.9945 444.081 70.9423C444.811 70.89 445.516 70.6532 446.129 70.2539C446.742 69.8546 447.244 69.3061 447.587 68.6597C447.93 68.0133 448.104 67.2903 448.091 66.5585C448.079 65.8267 447.88 65.1101 447.515 64.476C448.823 63.4997 449.76 62.1074 450.173 60.5278C450.529 60.653 450.91 60.6889 451.283 60.6324C451.656 60.5759 452.009 60.4286 452.312 60.2036C452.615 59.9785 452.858 59.6826 453.02 59.3417C453.181 59.0008 453.257 58.6254 453.24 58.2484C453.223 57.8715 453.113 57.5045 452.921 57.1797C452.729 56.8549 452.46 56.5823 452.138 56.3857C451.816 56.1891 451.451 56.0745 451.075 56.0521C450.698 56.0297 450.322 56.1001 449.979 56.2572C449.616 55.2499 449.031 54.3368 448.269 53.5851L448.274 53.58C448.479 53.3565 448.637 53.0949 448.741 52.8102C448.844 52.5254 448.89 52.223 448.877 51.9204C448.863 51.6177 448.79 51.3207 448.662 51.0463C448.533 50.772 448.352 50.5256 448.128 50.3213C447.905 50.117 447.643 49.9589 447.358 49.8559C447.073 49.7529 446.771 49.7071 446.468 49.7211C446.166 49.7351 445.869 49.8086 445.595 49.9374C445.321 50.0663 445.074 50.2479 444.871 50.4719Z" fill="#B02828"/>
<path d="M477.869 23.6893H452.266V27.5308H477.869V23.6893Z" fill="#E6E6E6"/>
<path d="M16.1154 326.684C25.3454 339.048 44.505 340.35 44.505 340.35C44.505 340.35 48.6999 321.605 39.4699 309.241C30.2399 296.877 11.0803 295.576 11.0803 295.576C11.0803 295.576 6.88538 314.32 16.1154 326.684Z" fill="#E6E6E6"/>
<path d="M63.1349 331.332C57.0443 339.491 44.4014 340.35 44.4014 340.35C44.4014 340.35 41.6333 327.981 47.7239 319.822C53.8145 311.663 66.4574 310.805 66.4574 310.805C66.4574 310.805 69.2255 323.174 63.1349 331.332Z" fill="#E6E6E6"/>
</svg>
